<svg width="37" height="42" viewBox="0 0 37 42" fill="none" xmlns="http://www.w3.org/2000/svg">
<path d="M2.56322 41.712C1.79522 41.712 1.23522 41.536 0.883225 41.184C0.531225 40.832 0.355225 40.272 0.355225 39.504V8.39996C0.355225 7.98396 0.403224 7.63196 0.499224 7.34396C0.627224 7.05596 0.803225 6.81596 1.02722 6.62396L7.21922 1.39196C7.37922 1.26396 7.58723 1.16796 7.84323 1.10396C8.13123 1.00796 8.43523 0.959961 8.75523 0.959961H24.0672C27.3952 0.959961 29.8432 1.61596 31.4112 2.92796C32.9792 4.20796 33.7632 6.15996 33.7632 8.78396V11.088C33.7632 12.208 33.6032 13.168 33.2832 13.968C32.9952 14.768 32.5472 15.408 31.9392 15.888L31.7952 15.984C33.5232 16.368 34.8192 17.2 35.6832 18.48C36.5472 19.728 36.9792 21.472 36.9792 23.712V28.128C36.9792 29.568 36.7712 30.816 36.3552 31.872C35.9392 32.896 35.3152 33.76 34.4832 34.464L28.2912 39.696C27.4912 40.368 26.4832 40.864 25.2672 41.184C24.0512 41.536 22.6272 41.712 20.9952 41.712H2.56322ZM27.1872 36C30.3552 36 32.6912 35.36 34.1952 34.08C35.7312 32.8 36.4992 30.816 36.4992 28.128V23.712C36.4992 21.376 36.0032 19.6 35.0112 18.384C34.0192 17.168 32.4992 16.464 30.4512 16.272C31.4112 15.856 32.1152 15.232 32.5632 14.4C33.0432 13.536 33.2832 12.432 33.2832 11.088V8.78396C33.2832 6.28796 32.5312 4.44796 31.0272 3.26396C29.5232 2.04796 27.2032 1.43996 24.0672 1.43996H8.75523C8.14722 1.43996 7.69922 1.58396 7.41122 1.87196C7.15522 2.12796 7.02723 2.55996 7.02723 3.16796V34.272C7.02723 34.88 7.15522 35.328 7.41122 35.616C7.69922 35.872 8.14722 36 8.75523 36H27.1872ZM25.2672 31.68H12.3552V5.75996H22.0992C23.4112 5.75996 24.4832 5.90396 25.3152 6.19196C26.1472 6.44796 26.7872 6.81596 27.2352 7.29596C27.6832 7.74396 27.9872 8.27196 28.1472 8.87996C28.3072 9.48796 28.3872 10.144 28.3872 10.848V13.92C28.3872 14.88 28.2112 15.76 27.8592 16.56C27.5392 17.36 26.6912 17.936 25.3152 18.288C26.6272 18.288 27.6992 18.432 28.5312 18.72C29.3632 18.976 30.0032 19.36 30.4512 19.872C30.8992 20.352 31.1872 20.928 31.3152 21.6C31.4752 22.272 31.5552 23.008 31.5552 23.808V26.88C31.5552 27.584 31.4752 28.24 31.3152 28.848C31.1552 29.424 30.8512 29.92 30.4032 30.336C29.9872 30.752 29.3632 31.088 28.5312 31.344C27.6992 31.568 26.6112 31.68 25.2672 31.68ZM22.0992 6.23996H12.8352V18.288H22.0992C23.4112 18.288 24.4512 18.176 25.2192 17.952C25.9872 17.696 26.5632 17.376 26.9472 16.992C27.3632 16.576 27.6192 16.112 27.7152 15.6C27.8432 15.056 27.9072 14.496 27.9072 13.92V10.848C27.9072 9.56796 27.5392 8.47996 26.8032 7.58396C26.0672 6.68796 24.4992 6.23996 22.0992 6.23996ZM17.8272 9.59996H21.9072C22.5152 9.59996 22.9632 9.75996 23.2512 10.08C23.5712 10.4 23.7312 10.88 23.7312 11.52V12.864C23.7312 13.504 23.5712 13.984 23.2512 14.304C22.9632 14.624 22.5152 14.784 21.9072 14.784H17.8272V9.59996ZM25.3152 18.768H12.8352V31.2H25.2672C27.6672 31.2 29.2352 30.816 29.9712 30.048C30.7072 29.248 31.0752 28.192 31.0752 26.88V23.808C31.0752 22.368 30.7072 21.168 29.9712 20.208C29.2672 19.248 27.7152 18.768 25.3152 18.768ZM17.8272 22.176H24.0672C24.6752 22.176 25.1232 22.336 25.4112 22.656C25.7312 22.944 25.8912 23.408 25.8912 24.048V25.92C25.8912 26.56 25.7312 27.04 25.4112 27.36C25.1232 27.68 24.6752 27.84 24.0672 27.84H17.8272V22.176Z" fill="white"/>
</svg>
