<svg width="34" height="42" viewBox="0 0 34 42" fill="none" xmlns="http://www.w3.org/2000/svg">
<path d="M25.0463 41.712H2.77428C2.00628 41.712 1.44628 41.536 1.09428 41.184C0.742284 40.832 0.566284 40.272 0.566284 39.504V8.39996C0.566284 7.98396 0.614284 7.63196 0.710284 7.34396C0.838284 7.05596 1.01428 6.81596 1.23828 6.62396L7.43028 1.39196C7.59028 1.26396 7.79829 1.16796 8.05429 1.10396C8.34229 1.00796 8.64628 0.959961 8.96628 0.959961H31.2383C32.0063 0.959961 32.5663 1.13596 32.9183 1.48796C33.2703 1.83996 33.4463 2.39996 33.4463 3.16796V8.78396C33.4463 9.19996 33.3823 9.55196 33.2543 9.83996C33.1583 10.128 32.9983 10.368 32.7743 10.56L28.6463 13.968C28.9663 14.128 29.1903 14.368 29.3183 14.688C29.4783 15.008 29.5583 15.424 29.5583 15.936V21.072C29.5583 21.488 29.4943 21.84 29.3663 22.128C29.2703 22.416 29.1103 22.656 28.8863 22.848L24.6143 26.448H31.2383C32.0063 26.448 32.5663 26.624 32.9183 26.976C33.2703 27.328 33.4463 27.888 33.4463 28.656V34.272C33.4463 34.688 33.3823 35.04 33.2543 35.328C33.1583 35.616 32.9983 35.856 32.7743 36.048L26.5343 41.232C26.4063 41.36 26.1983 41.472 25.9103 41.568C25.6543 41.664 25.3663 41.712 25.0463 41.712ZM31.2383 36C31.8463 36 32.2783 35.872 32.5343 35.616C32.8223 35.328 32.9663 34.88 32.9663 34.272V28.656C32.9663 28.048 32.8223 27.616 32.5343 27.36C32.2783 27.072 31.8463 26.928 31.2383 26.928H17.9903V22.8H27.3503C27.9583 22.8 28.3903 22.672 28.6463 22.416C28.9343 22.128 29.0783 21.68 29.0783 21.072V15.936C29.0783 15.328 28.9343 14.896 28.6463 14.64C28.3903 14.352 27.9583 14.208 27.3503 14.208H17.9903V10.512H31.2383C31.8463 10.512 32.2783 10.384 32.5343 10.128C32.8223 9.83996 32.9663 9.39196 32.9663 8.78396V3.16796C32.9663 2.55996 32.8223 2.12796 32.5343 1.87196C32.2783 1.58396 31.8463 1.43996 31.2383 1.43996H8.96628C8.35828 1.43996 7.91028 1.58396 7.62228 1.87196C7.36628 2.12796 7.23829 2.55996 7.23829 3.16796V34.272C7.23829 34.88 7.36628 35.328 7.62228 35.616C7.91028 35.872 8.35828 36 8.96628 36H31.2383ZM28.6463 31.2V31.68H12.4703V5.75996H28.6463V6.23996H12.9503V18.288H24.7583V18.768H12.9503V31.2H28.6463Z" fill="white"/>
</svg>
