<svg width="32" height="42" viewBox="0 0 32 42" fill="none" xmlns="http://www.w3.org/2000/svg">
<path d="M23.1261 41.712H2.67809C1.91009 41.712 1.35009 41.536 0.998093 41.184C0.646093 40.832 0.470093 40.272 0.470093 39.504V33.792C0.470093 33.376 0.518093 33.024 0.614093 32.736C0.742093 32.448 0.918093 32.208 1.14209 32.016L6.95009 27.12V16.416H2.67809C1.91009 16.416 1.35009 16.24 0.998093 15.888C0.646093 15.536 0.470093 14.976 0.470093 14.208V8.39996C0.470093 7.98396 0.518093 7.63196 0.614093 7.34396C0.742093 7.05596 0.918093 6.81596 1.14209 6.62396L7.33409 1.39196C7.49409 1.26396 7.70209 1.16796 7.95809 1.10396C8.24609 1.00796 8.55009 0.959961 8.87009 0.959961H29.3181C30.0861 0.959961 30.6461 1.13596 30.9981 1.48796C31.3501 1.83996 31.5261 2.39996 31.5261 3.16796V8.97596C31.5261 9.39196 31.4621 9.74396 31.3341 10.032C31.2381 10.32 31.0781 10.56 30.8541 10.752L25.1421 15.552V26.352H29.3181C30.0861 26.352 30.6461 26.528 30.9981 26.88C31.3501 27.232 31.5261 27.792 31.5261 28.56V34.272C31.5261 34.688 31.4621 35.04 31.3341 35.328C31.2381 35.616 31.0781 35.856 30.8541 36.048L24.6141 41.232C24.4861 41.36 24.2781 41.472 23.9901 41.568C23.7341 41.664 23.4461 41.712 23.1261 41.712ZM8.87009 36H29.3181C29.9261 36 30.3581 35.872 30.6141 35.616C30.9021 35.328 31.0461 34.88 31.0461 34.272V28.56C31.0461 27.952 30.9021 27.52 30.6141 27.264C30.3581 26.976 29.9261 26.832 29.3181 26.832H24.6621V10.704H29.3181C29.9261 10.704 30.3581 10.576 30.6141 10.32C30.9021 10.032 31.0461 9.58396 31.0461 8.97596V3.16796C31.0461 2.55996 30.9021 2.12796 30.6141 1.87196C30.3581 1.58396 29.9261 1.43996 29.3181 1.43996H8.87009C8.26209 1.43996 7.81409 1.58396 7.52609 1.87196C7.27009 2.12796 7.14209 2.55996 7.14209 3.16796V8.97596C7.14209 9.58396 7.27009 10.032 7.52609 10.32C7.81409 10.576 8.26209 10.704 8.87009 10.704H13.6221V26.832H8.87009C8.26209 26.832 7.81409 26.976 7.52609 27.264C7.27009 27.52 7.14209 27.952 7.14209 28.56V34.272C7.14209 34.88 7.27009 35.328 7.52609 35.616C7.81409 35.872 8.26209 36 8.87009 36ZM26.7261 31.68H11.4621V31.2H18.9021V6.23996H11.4621V5.75996H26.7261V6.23996H19.3821V31.2H26.7261V31.68Z" fill="white"/>
</svg>
