<svg width="36" height="42" viewBox="0 0 36 42" fill="none" xmlns="http://www.w3.org/2000/svg">
<path d="M10.0346 41.712H2.5946C1.8266 41.712 1.2666 41.536 0.914597 41.184C0.562597 40.832 0.386597 40.272 0.386597 39.504V8.39996C0.386597 7.98396 0.434597 7.63196 0.530596 7.34396C0.658597 7.05596 0.834597 6.81596 1.0586 6.62396L7.2506 1.39196C7.4106 1.26396 7.6186 1.16796 7.8746 1.10396C8.1626 1.00796 8.4666 0.959961 8.7866 0.959961H23.4746C25.7466 0.959961 27.6506 1.19996 29.1866 1.67996C30.7226 2.15996 31.9386 2.83196 32.8346 3.69596C33.7306 4.55996 34.3546 5.59996 34.7066 6.81596C35.0906 8.03196 35.2826 9.35996 35.2826 10.8V16.944C35.2826 18.48 35.0586 19.888 34.6106 21.168C34.1946 22.416 33.4586 23.488 32.4026 24.384L26.1626 29.568C25.3626 30.24 24.3226 30.8 23.0426 31.248C21.7946 31.664 20.2586 31.904 18.4346 31.968V34.272C18.4346 34.688 18.3706 35.04 18.2426 35.328C18.1466 35.616 17.9866 35.856 17.7626 36.048L11.5226 41.232C11.3946 41.36 11.1866 41.472 10.8986 41.568C10.6426 41.664 10.3546 41.712 10.0346 41.712ZM16.2266 36C16.8346 36 17.2666 35.872 17.5226 35.616C17.8106 35.328 17.9546 34.88 17.9546 34.272V26.304H23.4746C27.8266 26.304 30.8026 25.44 32.4026 23.712C34.0026 21.984 34.8026 19.728 34.8026 16.944V10.8C34.8026 8.01596 34.0026 5.75996 32.4026 4.03196C30.8026 2.30396 27.8266 1.43996 23.4746 1.43996H8.7866C8.1786 1.43996 7.7306 1.58396 7.4426 1.87196C7.1866 2.12796 7.0586 2.55996 7.0586 3.16796V34.272C7.0586 34.88 7.1866 35.328 7.4426 35.616C7.7306 35.872 8.1786 36 8.7866 36H16.2266ZM22.8026 22.224H12.9146V31.68H12.4346V5.75996H22.8026C24.3066 5.75996 25.5226 5.93596 26.4506 6.28796C27.4106 6.60796 28.1466 7.05596 28.6586 7.63196C29.1706 8.20796 29.5226 8.89596 29.7146 9.69596C29.9066 10.496 30.0026 11.36 30.0026 12.288V15.84C30.0026 16.768 29.9066 17.632 29.7146 18.432C29.5226 19.2 29.1706 19.872 28.6586 20.448C28.1466 20.992 27.4106 21.424 26.4506 21.744C25.5226 22.064 24.3066 22.224 22.8026 22.224ZM12.9146 21.744H22.8026C24.2106 21.744 25.3466 21.6 26.2106 21.312C27.1066 21.024 27.7946 20.624 28.2746 20.112C28.7546 19.568 29.0746 18.944 29.2346 18.24C29.4266 17.504 29.5226 16.704 29.5226 15.84V12.288C29.5226 11.424 29.4266 10.624 29.2346 9.88796C29.0746 9.15196 28.7546 8.51196 28.2746 7.96796C27.7946 7.42396 27.1066 7.00796 26.2106 6.71996C25.3466 6.39996 24.2106 6.23996 22.8026 6.23996H12.9146V21.744ZM17.8586 10.416H22.1786C23.1066 10.416 23.7146 10.656 24.0026 11.136C24.2906 11.616 24.4346 12.16 24.4346 12.768V15.312C24.4346 15.92 24.2906 16.464 24.0026 16.944C23.7146 17.424 23.1066 17.664 22.1786 17.664H17.8586V10.416Z" fill="white"/>
</svg>
