<svg width="43" height="42" viewBox="0 0 43 42" fill="none" xmlns="http://www.w3.org/2000/svg">
<path d="M25.2761 19.44C25.7881 19.44 26.1881 19.6 26.4761 19.92C26.7961 20.208 27.1801 20.8 27.6281 21.696L32.0441 30.528C32.2041 30.848 32.3961 31.04 32.6201 31.104C32.8761 31.168 33.1161 31.2 33.3401 31.2H33.5801C33.8361 31.2 34.0761 31.104 34.3001 30.912C34.5241 30.688 34.6521 30.448 34.6841 30.192L35.8841 24.72C36.0121 24.112 36.0761 23.328 36.0761 22.368C36.1081 21.408 36.1241 20.576 36.1241 19.872V5.75996H36.6041V19.92C36.6041 20.624 36.5881 21.456 36.5561 22.416C36.5561 23.376 36.4921 24.16 36.3641 24.768L35.1641 30.192C35.0361 30.704 34.8281 31.088 34.5401 31.344C34.2841 31.568 33.9641 31.68 33.5801 31.68H33.2441C32.9561 31.68 32.6521 31.632 32.3321 31.536C32.0441 31.408 31.8201 31.184 31.6601 30.864L27.2441 21.936C26.8281 21.104 26.4921 20.56 26.2361 20.304C25.9801 20.048 25.6601 19.92 25.2761 19.92H24.0761C23.6921 19.92 23.3721 20.048 23.1161 20.304C22.8601 20.56 22.5241 21.104 22.1081 21.936L17.6921 30.864C17.5321 31.184 17.2921 31.408 16.9721 31.536C16.6841 31.632 16.3961 31.68 16.1081 31.68H15.7721C15.3881 31.68 15.0521 31.568 14.7641 31.344C14.5081 31.088 14.3161 30.704 14.1881 30.192L12.9881 24.768C12.8601 24.16 12.7801 23.376 12.7481 22.416C12.7481 21.456 12.7481 20.624 12.7481 19.92V5.75996H13.2281V19.872C13.2281 20.576 13.2281 21.408 13.2281 22.368C13.2601 23.328 13.3401 24.112 13.4681 24.72L14.6681 30.192C14.7001 30.448 14.8281 30.688 15.0521 30.912C15.2761 31.104 15.5161 31.2 15.7721 31.2H16.0121C16.2361 31.2 16.4601 31.168 16.6841 31.104C16.9401 31.04 17.1481 30.848 17.3081 30.528L21.7241 21.696C22.1721 20.8 22.5401 20.208 22.8281 19.92C23.1481 19.6 23.5641 19.44 24.0761 19.44H25.2761ZM32.8121 1.43996C32.2041 1.43996 31.7561 1.58396 31.4681 1.87196C31.2121 2.12796 31.0841 2.55996 31.0841 3.16796V20.832L28.3001 14.784C28.0441 14.24 27.7081 13.856 27.2921 13.632C26.8761 13.408 26.3641 13.296 25.7561 13.296H23.7401C23.1321 13.296 22.6201 13.408 22.2041 13.632C21.7881 13.856 21.4521 14.24 21.1961 14.784L18.4121 20.832V3.16796C18.4121 2.55996 18.2681 2.12796 17.9801 1.87196C17.7241 1.58396 17.2921 1.43996 16.6841 1.43996H9.29209C8.68409 1.43996 8.23609 1.58396 7.94809 1.87196C7.69209 2.12796 7.56409 2.55996 7.56409 3.16796V21.696C7.56409 22.72 7.59609 23.68 7.66009 24.576C7.75609 25.44 8.01209 26.464 8.42809 27.648L10.8281 34.272C10.9881 34.784 11.2441 35.2 11.5961 35.52C11.9801 35.84 12.4281 36 12.9401 36H19.2761C19.7881 36 20.2201 35.888 20.5721 35.664C20.9241 35.408 21.1641 35.04 21.2921 34.56L23.5481 26.736C23.6441 26.416 23.7561 26.208 23.8841 26.112C24.0441 25.984 24.2201 25.92 24.4121 25.92H24.8441C25.0361 25.92 25.1961 25.984 25.3241 26.112C25.4841 26.208 25.6121 26.416 25.7081 26.736L27.9161 34.56C28.0441 35.072 28.3161 35.44 28.7321 35.664C29.1481 35.888 29.6121 36 30.1241 36H36.5081C37.0201 36 37.4201 35.84 37.7081 35.52C38.0281 35.168 38.2681 34.752 38.4281 34.272L40.8281 27.744C41.2441 26.56 41.4841 25.536 41.5481 24.672C41.6441 23.776 41.6921 22.816 41.6921 21.792V3.16796C41.6921 2.55996 41.5481 2.12796 41.2601 1.87196C41.0041 1.58396 40.5721 1.43996 39.9641 1.43996H32.8121ZM14.7641 41.136C14.5401 41.296 14.2841 41.424 13.9961 41.52C13.7081 41.648 13.4041 41.712 13.0841 41.712H6.74809C6.14009 41.712 5.61209 41.52 5.16409 41.136C4.71609 40.752 4.39609 40.256 4.20409 39.648L1.80409 33.024C1.35609 31.84 1.08409 30.8 0.98809 29.904C0.92409 28.976 0.89209 27.984 0.89209 26.928V8.39996C0.89209 7.98396 0.94009 7.63196 1.03609 7.34396C1.16409 7.05596 1.34009 6.81596 1.56409 6.62396L7.75609 1.39196C7.91609 1.26396 8.12409 1.16796 8.38009 1.10396C8.66809 1.00796 8.97209 0.959961 9.29209 0.959961H16.6841C17.4521 0.959961 18.0121 1.13596 18.3641 1.48796C18.7161 1.83996 18.8921 2.39996 18.8921 3.16796V15.696L21.5801 13.44C21.8361 13.216 22.1401 13.056 22.4921 12.96C22.8761 12.864 23.2921 12.816 23.7401 12.816H24.4121V8.39996C24.4121 7.98396 24.4601 7.63196 24.5561 7.34396C24.6521 7.05596 24.7961 6.83196 24.9881 6.67196L25.0361 6.62396L31.2761 1.39196C31.4361 1.26396 31.6441 1.16796 31.9001 1.10396C32.1561 1.00796 32.4601 0.959961 32.8121 0.959961H39.9641C40.7321 0.959961 41.2921 1.13596 41.6441 1.48796C41.9961 1.83996 42.1721 2.39996 42.1721 3.16796V21.792C42.1721 22.848 42.1241 23.84 42.0281 24.768C41.9641 25.664 41.7081 26.704 41.2601 27.888L38.8601 34.416C38.7641 34.736 38.6361 35.024 38.4761 35.28C38.3161 35.536 38.1241 35.776 37.9001 36L31.7081 41.136C31.5161 41.328 31.3081 41.472 31.0841 41.568C30.8601 41.664 30.6041 41.712 30.3161 41.712H23.9321C23.2921 41.712 22.7321 41.568 22.2521 41.28C21.7721 40.992 21.4361 40.544 21.2441 39.936L20.2841 36.528L14.7641 41.136Z" fill="white"/>
</svg>
