<svg width="173" height="29" viewBox="0 0 173 29" fill="none" xmlns="http://www.w3.org/2000/svg">
<path d="M21.2734 29H0.863281C0.667969 29 0.505208 28.9349 0.375 28.8047C0.244792 28.6615 0.179688 28.4987 0.179688 28.3164V19.0391C0.179688 17.1641 0.641927 15.4323 1.56641 13.8438C2.50391 12.2422 3.77344 10.9792 5.375 10.0547C6.97656 9.11719 8.71484 8.64844 10.5898 8.64844H20.5898V2.32031H1.50781V8.72656C1.50781 8.89583 1.44271 9.04557 1.3125 9.17578C1.19531 9.29297 1.04557 9.35156 0.863281 9.35156C0.667969 9.35156 0.505208 9.29297 0.375 9.17578C0.244792 9.05859 0.179688 8.90885 0.179688 8.72656V1.63672C0.179688 1.45443 0.244792 1.29818 0.375 1.16797C0.505208 1.02474 0.667969 0.953125 0.863281 0.953125H21.2734C21.4427 0.953125 21.5924 1.02474 21.7227 1.16797C21.8659 1.29818 21.9375 1.45443 21.9375 1.63672V9.3125C21.9375 9.49479 21.8659 9.65755 21.7227 9.80078C21.5924 9.93099 21.4427 9.99609 21.2734 9.99609H10.5898C8.94922 9.99609 7.43229 10.4062 6.03906 11.2266C4.64583 12.0339 3.53906 13.1341 2.71875 14.5273C1.91146 15.9076 1.50781 17.4115 1.50781 19.0391V27.6328L20.5898 27.6719V21.3242H10.8242C10.6549 21.3242 10.5052 21.2591 10.375 21.1289C10.2448 20.9857 10.1797 20.8229 10.1797 20.6406V17.8867C10.1797 17.7044 10.2448 17.5482 10.375 17.418C10.5052 17.2747 10.6549 17.2031 10.8242 17.2031H18.4609V13.1602H10.8242C10.6549 13.1602 10.5052 13.0951 10.375 12.9648C10.2448 12.8216 10.1797 12.6589 10.1797 12.4766C10.1797 12.2943 10.2448 12.138 10.375 12.0078C10.5052 11.8646 10.6549 11.793 10.8242 11.793H19.1445C19.3138 11.793 19.4635 11.8646 19.5938 12.0078C19.724 12.138 19.7891 12.2943 19.7891 12.4766V17.8867C19.7891 18.069 19.724 18.2253 19.5938 18.3555C19.4635 18.4857 19.3138 18.5508 19.1445 18.5508H11.5078V19.957H21.2734C21.4427 19.957 21.5924 20.0286 21.7227 20.1719C21.8659 20.3021 21.9375 20.4583 21.9375 20.6406V28.3164C21.9375 28.4987 21.8659 28.6615 21.7227 28.8047C21.5924 28.9349 21.4427 29 21.2734 29Z" fill="white"/>
<path d="M38.0195 29H28.1367C27.9414 29 27.7786 28.9349 27.6484 28.8047C27.5182 28.6745 27.4531 28.5117 27.4531 28.3164V17.2031C27.4531 14.8464 28.2865 12.8411 29.9531 11.1875C31.6328 9.52083 33.6445 8.6875 35.9883 8.6875H40.9883C41.5091 8.6875 41.9518 8.86979 42.3164 9.23438C42.681 9.59896 42.8633 10.0417 42.8633 10.5625V11.4023C42.8633 11.9362 42.681 12.3919 42.3164 12.7695C41.9518 13.1341 41.5091 13.3164 40.9883 13.3164H38.2539C38.0846 13.3164 37.9284 13.2513 37.7852 13.1211C37.6419 12.9779 37.5703 12.8151 37.5703 12.6328C37.5703 12.4635 37.6354 12.3138 37.7656 12.1836C37.9089 12.0404 38.0716 11.9688 38.2539 11.9688H40.9883C41.1315 11.9688 41.2487 11.9167 41.3398 11.8125C41.444 11.6953 41.4961 11.5586 41.4961 11.4023V10.5625C41.4961 10.4062 41.444 10.276 41.3398 10.1719C41.2487 10.0547 41.1315 9.99609 40.9883 9.99609H35.9883C34.0091 9.99609 32.3099 10.7057 30.8906 12.125C29.4844 13.5312 28.7812 15.224 28.7812 17.2031V27.6719H37.3359V19.7227C37.3359 19.5404 37.401 19.3906 37.5312 19.2734C37.6615 19.1432 37.8242 19.0781 38.0195 19.0781H44.543C46.4701 19.0781 48.1107 18.401 49.4648 17.0469C50.819 15.6927 51.4961 14.0521 51.4961 12.125V9.23438C51.4961 7.32031 50.819 5.69271 49.4648 4.35156C48.1237 2.9974 46.4961 2.32031 44.582 2.32031H28.7812V9.52734C28.7812 9.72266 28.7161 9.88542 28.5859 10.0156C28.4688 10.1328 28.319 10.1914 28.1367 10.1914C27.9414 10.1914 27.7786 10.1328 27.6484 10.0156C27.5182 9.88542 27.4531 9.72266 27.4531 9.52734V1.63672C27.4531 1.45443 27.5182 1.29818 27.6484 1.16797C27.7786 1.02474 27.9414 0.953125 28.1367 0.953125H44.582C46.8607 0.953125 48.8073 1.76693 50.4219 3.39453C52.0495 5.00911 52.8633 6.95573 52.8633 9.23438V12.125C52.8633 14.4036 52.0495 16.3568 50.4219 17.9844C48.8073 19.599 46.8477 20.4062 44.543 20.4062H38.6641V28.3164C38.6641 28.5117 38.599 28.6745 38.4688 28.8047C38.3516 28.9349 38.2018 29 38.0195 29Z" fill="white"/>
<path d="M68.418 29H58.457C58.2617 29 58.099 28.9349 57.9688 28.8047C57.8385 28.6745 57.7734 28.5117 57.7734 28.3164V21.5586C57.7734 20.7253 57.8906 19.944 58.125 19.2148C58.3594 18.4727 58.6263 17.8607 58.9258 17.3789C59.2383 16.8841 59.681 16.3698 60.2539 15.8359C60.8398 15.2891 61.3216 14.8789 61.6992 14.6055C62.0768 14.319 62.6107 13.9414 63.3008 13.4727C63.9128 13.056 64.3815 12.7305 64.707 12.4961C65.0326 12.2487 65.4232 11.9232 65.8789 11.5195C66.3477 11.1029 66.6927 10.7188 66.9141 10.3672C67.1354 10.0156 67.3307 9.59245 67.5 9.09766C67.6823 8.60286 67.7734 8.07552 67.7734 7.51562V2.32031H59.1016V13.5508C59.1016 13.7201 59.0365 13.8698 58.9062 14C58.776 14.1302 58.6263 14.1953 58.457 14.1953C58.2617 14.1953 58.099 14.1367 57.9688 14.0195C57.8385 13.8893 57.7734 13.7331 57.7734 13.5508V1.63672C57.7734 1.45443 57.8385 1.29818 57.9688 1.16797C58.099 1.02474 58.2617 0.953125 58.457 0.953125H68.418C68.6133 0.953125 68.776 1.02474 68.9062 1.16797C69.0365 1.29818 69.1016 1.45443 69.1016 1.63672V7.51562C69.1016 8.20573 68.9974 8.86328 68.7891 9.48828C68.5807 10.1003 68.3398 10.6211 68.0664 11.0508C67.793 11.4805 67.3958 11.9362 66.875 12.418C66.3542 12.8867 65.918 13.2513 65.5664 13.5117C65.2148 13.7721 64.7135 14.1237 64.0625 14.5664C63.5677 14.9049 63.1966 15.1589 62.9492 15.3281C62.7148 15.4974 62.3893 15.7513 61.9727 16.0898C61.556 16.4154 61.237 16.6953 61.0156 16.9297C60.8073 17.1641 60.5534 17.4701 60.2539 17.8477C59.9674 18.2122 59.7526 18.5703 59.6094 18.9219C59.4792 19.2604 59.362 19.6641 59.2578 20.1328C59.1536 20.5885 59.1016 21.0638 59.1016 21.5586V27.6719H67.7734V14.8008C67.7734 14.6185 67.8385 14.4622 67.9688 14.332C68.099 14.1888 68.2487 14.1172 68.418 14.1172C68.6133 14.1172 68.776 14.1888 68.9062 14.332C69.0365 14.4622 69.1016 14.6185 69.1016 14.8008V28.3164C69.1016 28.5117 69.0365 28.6745 68.9062 28.8047C68.776 28.9349 68.6133 29 68.418 29Z" fill="white"/>
<path d="M109.168 29H96.6094C96.4531 29 96.3164 28.9479 96.1992 28.8438C96.082 28.7266 96.0104 28.5898 95.9844 28.4336L94.3828 18.5117L92.7812 28.4336C92.7422 28.5898 92.6576 28.7266 92.5273 28.8438C92.3971 28.9479 92.2539 29 92.0977 29H79.5781C79.4219 29 79.2786 28.9479 79.1484 28.8438C79.0182 28.7266 78.9336 28.5898 78.8945 28.4336L77.6641 20.5234C77.651 20.3281 77.6901 20.1589 77.7812 20.0156C77.8854 19.8594 78.0286 19.7617 78.2109 19.7227C78.3932 19.6966 78.5625 19.7422 78.7188 19.8594C78.875 19.9766 78.9596 20.1198 78.9727 20.2891L80.1445 27.6719H91.5312L93.2891 16.8711C93.3021 16.7148 93.3737 16.5846 93.5039 16.4805C93.6341 16.3763 93.7773 16.3242 93.9336 16.3242H94.8125C94.9688 16.3242 95.112 16.3763 95.2422 16.4805C95.3724 16.5846 95.444 16.7148 95.457 16.8711L97.2148 27.6719H108.621L113.816 2.32031H105.34L103.055 18.3164C103.042 18.4727 102.97 18.6094 102.84 18.7266C102.71 18.8307 102.566 18.8828 102.41 18.8828H101.57C101.414 18.8828 101.277 18.8307 101.16 18.7266C101.043 18.6094 100.971 18.4727 100.945 18.3164L98.0547 2.32031H90.6523L88.6602 13.6484C88.3737 15.1719 87.638 16.4284 86.4531 17.418C85.2812 18.3945 83.9206 18.8828 82.3711 18.8828C80.8867 18.8828 79.5716 18.4206 78.4258 17.4961C77.2799 16.5716 76.5443 15.3802 76.2188 13.9219L73.4648 1.79297C73.4258 1.57161 73.4648 1.3763 73.582 1.20703C73.7513 1.03776 73.9206 0.953125 74.0898 0.953125H83.9727C84.1549 0.953125 84.3112 1.01172 84.4414 1.12891C84.5716 1.24609 84.6432 1.38932 84.6562 1.55859L86.0234 11.7148C86.0365 11.9102 85.9909 12.0794 85.8867 12.2227C85.7826 12.3659 85.6393 12.4505 85.457 12.4766C85.2747 12.5026 85.1055 12.4635 84.9492 12.3594C84.793 12.2422 84.7083 12.099 84.6953 11.9297L83.4062 2.32031H74.9297L77.4883 13.6484C77.7487 14.7943 78.3346 15.7318 79.2461 16.4609C80.1706 17.1901 81.2122 17.5547 82.3711 17.5547C83.5951 17.5547 84.6693 17.1641 85.5938 16.3828C86.5312 15.5885 87.1107 14.5924 87.332 13.3945L89.4609 1.51953C89.487 1.36328 89.5586 1.23307 89.6758 1.12891C89.793 1.01172 89.9297 0.953125 90.0859 0.953125H98.6211C98.7773 0.953125 98.9206 1.01172 99.0508 1.12891C99.181 1.23307 99.2656 1.36328 99.3047 1.51953L101.98 16.5195L104.09 1.51953C104.103 1.36328 104.174 1.23307 104.305 1.12891C104.435 1.01172 104.578 0.953125 104.734 0.953125H114.617C114.839 0.953125 115.014 1.03776 115.145 1.20703C115.288 1.38932 115.34 1.57161 115.301 1.75391L109.812 28.4727C109.786 28.6159 109.708 28.7396 109.578 28.8438C109.461 28.9479 109.324 29 109.168 29Z" fill="white"/>
<path d="M140.758 29H120.348C120.152 29 119.99 28.9349 119.859 28.8047C119.729 28.6615 119.664 28.4987 119.664 28.3164V19.0391C119.664 17.1641 120.126 15.4323 121.051 13.8438C121.988 12.2422 123.258 10.9792 124.859 10.0547C126.461 9.11719 128.199 8.64844 130.074 8.64844H140.074V2.32031H120.992V8.72656C120.992 8.89583 120.927 9.04557 120.797 9.17578C120.68 9.29297 120.53 9.35156 120.348 9.35156C120.152 9.35156 119.99 9.29297 119.859 9.17578C119.729 9.05859 119.664 8.90885 119.664 8.72656V1.63672C119.664 1.45443 119.729 1.29818 119.859 1.16797C119.99 1.02474 120.152 0.953125 120.348 0.953125H140.758C140.927 0.953125 141.077 1.02474 141.207 1.16797C141.35 1.29818 141.422 1.45443 141.422 1.63672V9.3125C141.422 9.49479 141.35 9.65755 141.207 9.80078C141.077 9.93099 140.927 9.99609 140.758 9.99609H130.074C128.434 9.99609 126.917 10.4062 125.523 11.2266C124.13 12.0339 123.023 13.1341 122.203 14.5273C121.396 15.9076 120.992 17.4115 120.992 19.0391V27.6328L140.074 27.6719V21.3242H130.309C130.139 21.3242 129.99 21.2591 129.859 21.1289C129.729 20.9857 129.664 20.8229 129.664 20.6406V17.8867C129.664 17.7044 129.729 17.5482 129.859 17.418C129.99 17.2747 130.139 17.2031 130.309 17.2031H137.945V13.1602H130.309C130.139 13.1602 129.99 13.0951 129.859 12.9648C129.729 12.8216 129.664 12.6589 129.664 12.4766C129.664 12.2943 129.729 12.138 129.859 12.0078C129.99 11.8646 130.139 11.793 130.309 11.793H138.629C138.798 11.793 138.948 11.8646 139.078 12.0078C139.208 12.138 139.273 12.2943 139.273 12.4766V17.8867C139.273 18.069 139.208 18.2253 139.078 18.3555C138.948 18.4857 138.798 18.5508 138.629 18.5508H130.992V19.957H140.758C140.927 19.957 141.077 20.0286 141.207 20.1719C141.35 20.3021 141.422 20.4583 141.422 20.6406V28.3164C141.422 28.4987 141.35 28.6615 141.207 28.8047C141.077 28.9349 140.927 29 140.758 29Z" fill="white"/>
<path d="M160.668 21.3242H157.582C157.413 21.3242 157.263 21.2591 157.133 21.1289C157.003 20.9857 156.938 20.8229 156.938 20.6406V19.5273C156.938 19.3581 157.003 19.2083 157.133 19.0781C157.263 18.9479 157.413 18.8828 157.582 18.8828C157.777 18.8828 157.94 18.9479 158.07 19.0781C158.201 19.1953 158.266 19.3451 158.266 19.5273V19.957H160.668C160.876 19.957 160.98 19.8529 160.98 19.6445V18.3164C160.98 18.1081 160.876 18.0039 160.668 18.0039H155.219C152.94 18.0039 150.987 17.1966 149.359 15.582C147.745 13.9544 146.938 12.0013 146.938 9.72266V1.63672C146.938 1.45443 147.003 1.29818 147.133 1.16797C147.263 1.02474 147.426 0.953125 147.621 0.953125H164.184C166.462 0.953125 168.285 1.63021 169.652 2.98438C171.02 4.32552 171.703 6.11589 171.703 8.35547C171.703 9.27995 171.527 10.1458 171.176 10.9531C171.098 11.1094 170.967 11.2266 170.785 11.3047C170.616 11.3698 170.453 11.3633 170.297 11.2852C170.128 11.2331 170.004 11.1159 169.926 10.9336C169.861 10.7513 169.867 10.5755 169.945 10.4062C170.232 9.72917 170.375 9.04557 170.375 8.35547C170.375 6.49349 169.822 5.02214 168.715 3.94141C167.608 2.86068 166.098 2.32031 164.184 2.32031H148.266V9.72266C148.266 11.6497 148.943 13.2839 150.297 14.625C151.651 15.9661 153.292 16.6367 155.219 16.6367H160.668C161.124 16.6367 161.514 16.806 161.84 17.1445C162.178 17.4701 162.348 17.8607 162.348 18.3164V19.6445C162.348 20.1003 162.178 20.4974 161.84 20.8359C161.514 21.1615 161.124 21.3242 160.668 21.3242ZM165.824 29H147.621C147.426 29 147.263 28.9349 147.133 28.8047C147.003 28.6745 146.938 28.5117 146.938 28.3164V17.2031C146.938 17.0208 147.003 16.8646 147.133 16.7344C147.263 16.5911 147.426 16.5195 147.621 16.5195C147.79 16.5195 147.94 16.5911 148.07 16.7344C148.201 16.8646 148.266 17.0208 148.266 17.2031V27.6719H165.824C167.243 27.6719 168.454 27.1641 169.457 26.1484C170.473 25.1328 170.98 23.9089 170.98 22.4766V19.1562C170.98 17.3854 170.349 15.8685 169.086 14.6055C167.836 13.3424 166.319 12.7109 164.535 12.7109H157.582C157.413 12.7109 157.263 12.6458 157.133 12.5156C157.003 12.3854 156.938 12.2292 156.938 12.0469V9.3125C156.938 9.13021 157.003 8.97396 157.133 8.84375C157.263 8.71354 157.413 8.64844 157.582 8.64844H160.668C161.124 8.64844 161.514 8.81771 161.84 9.15625C162.178 9.48177 162.348 9.8724 162.348 10.3281C162.348 10.4974 162.276 10.6536 162.133 10.7969C162.003 10.9271 161.846 10.9922 161.664 10.9922C161.482 10.9922 161.319 10.9271 161.176 10.7969C161.046 10.6536 160.98 10.4974 160.98 10.3281C160.98 10.25 160.948 10.1784 160.883 10.1133C160.831 10.0352 160.759 9.99609 160.668 9.99609H158.266V11.3633H164.535C166.671 11.3633 168.507 12.1315 170.043 13.668C171.579 15.1914 172.348 17.0208 172.348 19.1562V22.4766C172.348 24.2734 171.71 25.8099 170.434 27.0859C169.158 28.362 167.621 29 165.824 29Z" fill="white"/>
</svg>
