<svg width="141" height="141" viewBox="0 0 141 141" fill="none" xmlns="http://www.w3.org/2000/svg">
<path d="M54.8664 77.766L35.6872 70.7853C35.5036 70.7185 35.3729 70.6017 35.2951 70.4348C35.2218 70.2557 35.2162 70.0805 35.2786 69.9092L38.4516 61.1913C39.0929 59.4294 40.1196 57.9602 41.5316 56.7836C42.9603 55.5993 44.5853 54.8466 46.4065 54.5257C48.2321 54.1925 50.0259 54.3465 51.7878 54.9878L61.1847 58.408L63.3491 52.4615L45.4178 45.9351L43.2267 51.955C43.1688 52.114 43.0565 52.2325 42.8896 52.3103C42.7394 52.3803 42.5786 52.3842 42.4073 52.3218C42.2238 52.255 42.0909 52.1443 42.0086 51.9897C41.9263 51.835 41.9164 51.672 41.9787 51.5007L44.4036 44.8385C44.4659 44.6672 44.5805 44.5426 44.7474 44.4648C44.9188 44.3747 45.0962 44.3631 45.2798 44.4299L64.459 51.4106C64.6181 51.4685 64.7343 51.587 64.8077 51.7661C64.8977 51.9375 64.9116 52.1088 64.8492 52.2801L62.224 59.4929C62.1616 59.6642 62.0387 59.7927 61.8551 59.8783C61.6882 59.9561 61.5252 59.9661 61.3661 59.9082L51.3269 56.2542C49.7852 55.6931 48.2194 55.5597 46.6297 55.854C45.0444 56.1361 43.628 56.7915 42.3807 57.8201C41.15 58.841 40.2563 60.1161 39.6997 61.6456L36.7604 69.721L54.6783 76.2842L56.8493 70.3193L47.6726 66.9793C47.5136 66.9214 47.3951 66.809 47.3173 66.6421C47.244 66.463 47.2384 66.2878 47.3008 66.1165L48.2427 63.5287C48.305 63.3574 48.4196 63.2328 48.5865 63.155C48.7579 63.0649 48.9231 63.0488 49.0821 63.1067L56.2583 65.7187L57.6411 61.9195L50.4649 59.3076C50.3059 59.2497 50.1874 59.1373 50.1096 58.9704C50.0362 58.7913 50.0307 58.6161 50.0931 58.4448C50.1554 58.2735 50.27 58.1489 50.4369 58.0711C50.6083 57.981 50.7735 57.965 50.9325 58.0229L58.7511 60.8686C58.9101 60.9265 59.0263 61.045 59.0997 61.2241C59.1775 61.391 59.1853 61.5601 59.1229 61.7314L57.2725 66.8153C57.2102 66.9866 57.0956 67.1111 56.9287 67.1889C56.7618 67.2668 56.5988 67.2767 56.4398 67.2188L49.2636 64.6069L48.7826 65.9284L57.9593 69.2684C58.1184 69.3263 58.2346 69.4448 58.308 69.6239C58.398 69.7953 58.4119 69.9666 58.3495 70.1379L55.7242 77.3508C55.6619 77.5221 55.5389 77.6505 55.3554 77.7361C55.1885 77.814 55.0255 77.8239 54.8664 77.766Z" fill="white"/>
<path d="M68.7232 82.8095L59.4364 79.4294C59.2529 79.3626 59.1222 79.2457 59.0444 79.0788C58.9666 78.9119 58.9611 78.7367 59.0279 78.5532L62.8288 68.1101C63.6349 65.8955 65.1038 64.2962 67.2355 63.3123C69.3839 62.3207 71.5594 62.2256 73.7618 63.0272L78.4602 64.7373C78.9496 64.9155 79.3033 65.2382 79.5212 65.7055C79.7391 66.1728 79.759 66.6511 79.5809 67.1406L79.2936 67.9298C79.111 68.4314 78.7839 68.7973 78.3121 69.0274C77.8448 69.2453 77.3665 69.2652 76.877 69.0871L74.3076 68.1519C74.1485 68.094 74.0239 67.9794 73.9339 67.808C73.8483 67.6245 73.8367 67.447 73.899 67.2757C73.9569 67.1167 74.0693 66.9982 74.2362 66.9204C74.4198 66.8348 74.5972 66.8232 74.7685 66.8855L77.338 67.8207C77.4726 67.8697 77.6005 67.8608 77.7218 67.7941C77.8597 67.7196 77.9554 67.609 78.0089 67.4621L78.2961 66.673C78.3496 66.5261 78.3452 66.386 78.2829 66.2524C78.2373 66.1112 78.1472 66.016 78.0127 65.967L73.3142 64.2569C71.4544 63.58 69.6149 63.6657 67.7958 64.5139C65.9934 65.3544 64.7538 66.7046 64.0768 68.5644L60.4963 78.4018L68.5351 81.3276L71.2539 73.8578C71.3162 73.6865 71.4286 73.5681 71.5911 73.5025C71.758 73.4247 71.9332 73.4192 72.1167 73.486L78.2467 75.7171C80.0576 76.3762 81.8309 76.3011 83.5665 75.4917C85.3022 74.6824 86.4995 73.3723 87.1586 71.5614L88.1473 68.8451C88.8019 67.0465 88.7224 65.2855 87.9086 63.5621C87.1114 61.8309 85.8136 60.6379 84.0149 59.9833L69.1671 54.5791L66.7021 61.3515C66.6353 61.535 66.5185 61.6657 66.3516 61.7435C66.2014 61.8136 66.0406 61.8174 65.8693 61.7551C65.6858 61.6883 65.5529 61.5775 65.4706 61.4229C65.3928 61.256 65.3873 61.0808 65.4541 60.8972L68.1528 53.4825C68.2152 53.3112 68.3298 53.1866 68.4967 53.1088C68.668 53.0187 68.8455 53.0071 69.029 53.0739L84.4826 58.6985C86.6238 59.4779 88.1747 60.9084 89.1352 62.9901C90.1124 65.0639 90.2114 67.1715 89.432 69.3127L88.4434 72.029C87.664 74.1703 86.2313 75.7273 84.1452 76.7C82.0757 77.665 79.9582 77.7534 77.7925 76.9651L72.2681 74.9544L69.5627 82.3876C69.4959 82.5711 69.379 82.7018 69.2122 82.7796C69.0575 82.8619 68.8945 82.8718 68.7232 82.8095Z" fill="white"/>
<path d="M95.409 92.5223L86.0488 89.1155C85.8653 89.0487 85.7346 88.9318 85.6568 88.7649C85.579 88.5981 85.5734 88.4228 85.6402 88.2393L87.9515 81.889C88.2366 81.106 88.6139 80.4119 89.0835 79.8069C89.5576 79.1896 90.0177 78.7058 90.4639 78.3555C90.9268 77.9975 91.5187 77.6656 92.2397 77.3599C92.9773 77.0464 93.5703 76.8257 94.0187 76.6979C94.4715 76.5579 95.1023 76.3857 95.9111 76.1812C96.6287 75.999 97.1805 75.8534 97.5666 75.7445C97.9571 75.6234 98.4355 75.4511 99.0018 75.2276C99.5847 74.9964 100.04 74.7535 100.369 74.4988C100.697 74.2442 101.025 73.9133 101.353 73.5063C101.694 73.1037 101.96 72.6393 102.151 72.1132L103.928 67.2312L95.7795 64.2652L91.9384 74.8184C91.8805 74.9775 91.7681 75.0959 91.6012 75.1737C91.4343 75.2516 91.2714 75.2615 91.1123 75.2036C90.9288 75.1368 90.7959 75.0261 90.7136 74.8714C90.6358 74.7045 90.628 74.5355 90.6904 74.3642L94.7652 63.1686C94.8276 62.9973 94.9422 62.8727 95.1091 62.7949C95.2804 62.7049 95.4579 62.6932 95.6414 62.76L105.002 66.1669C105.185 66.2337 105.314 66.3566 105.387 66.5358C105.465 66.7027 105.473 66.8717 105.41 67.043L103.399 72.5674C103.163 73.2159 102.841 73.7982 102.431 74.3142C102.026 74.818 101.622 75.2251 101.218 75.5353C100.814 75.8456 100.285 76.138 99.6305 76.4126C98.9808 76.6749 98.4462 76.8683 98.0267 76.9928C97.6073 77.1173 97.016 77.2762 96.2528 77.4695C95.6721 77.6184 95.2365 77.7301 94.9461 77.8045C94.668 77.8834 94.2753 78.0107 93.7679 78.1863C93.2651 78.3497 92.8696 78.5037 92.5814 78.6482C92.3055 78.7972 91.9622 78.9979 91.5516 79.2503C91.1578 79.4949 90.8334 79.7579 90.5786 80.0393C90.3404 80.3129 90.0923 80.6521 89.8341 81.0569C89.5803 81.4495 89.3688 81.8783 89.1996 82.3433L87.1087 88.0879L95.2576 91.0538L99.6598 78.959C99.7221 78.7877 99.8367 78.6631 100.004 78.5853C100.175 78.4952 100.34 78.4792 100.499 78.537C100.683 78.6038 100.811 78.7268 100.885 78.9059C100.962 79.0728 100.97 79.2419 100.908 79.4132L96.2852 92.1138C96.2184 92.2973 96.1016 92.428 95.9347 92.5058C95.7678 92.5836 95.5926 92.5891 95.409 92.5223Z" fill="white"/>
<path fill-rule="evenodd" clip-rule="evenodd" d="M53.6819 114.256C77.8144 123.039 104.498 110.597 113.282 86.4642C122.065 62.3317 109.622 35.648 85.4898 26.8645C61.3573 18.081 34.6736 30.5238 25.8901 54.6563C17.1066 78.7888 29.5494 105.472 53.6819 114.256ZM53.3399 115.196C77.9913 124.168 105.249 111.458 114.221 86.8062C123.194 62.1547 110.483 34.8972 85.8318 25.9248C61.1803 16.9524 33.9228 29.6628 24.9504 54.3143C15.978 78.9657 28.6884 106.223 53.3399 115.196Z" fill="white"/>
<path fill-rule="evenodd" clip-rule="evenodd" d="M46.6273 135.1C82.4368 148.134 122.032 129.67 135.065 93.8608C148.099 58.0513 129.636 18.4562 93.8261 5.42261C58.0166 -7.61098 18.4215 10.8525 5.38789 46.662C-7.64569 82.4715 10.8178 122.067 46.6273 135.1ZM46.2853 136.04C82.6137 149.262 122.783 130.531 136.005 94.2028C149.228 57.8744 130.497 17.7054 94.1681 4.48291C57.8396 -8.73956 17.6707 9.99154 4.4482 46.32C-8.77427 82.6484 9.95682 122.817 46.2853 136.04Z" fill="white"/>
<path d="M120.352 52.8369L128.759 50.4929L130.212 55.706L129.12 56.0104L128.02 52.0657L125.459 52.7799L126.455 56.3511L125.367 56.6544L124.371 53.0832L120.706 54.1053L120.352 52.8369Z" fill="white"/>
<path d="M122.469 61.0291L131.149 60.1282L131.471 63.2223C131.54 63.8949 131.482 64.465 131.297 64.9327C131.111 65.4032 130.825 65.7699 130.438 66.0328C130.054 66.2955 129.595 66.4545 129.061 66.5099C128.53 66.5651 128.051 66.502 127.624 66.3207C127.199 66.1419 126.853 65.8409 126.583 65.4176C126.314 64.9971 126.144 64.4506 126.074 63.7781L125.831 61.4342L126.959 61.3171L127.19 63.5424C127.234 63.9663 127.33 64.3047 127.479 64.5577C127.628 64.8135 127.825 64.9916 128.07 65.0919C128.315 65.1922 128.599 65.2254 128.924 65.1917C129.252 65.1577 129.53 65.0647 129.757 64.9126C129.984 64.7633 130.147 64.5479 130.246 64.2662C130.349 63.9871 130.378 63.6314 130.333 63.1991L130.162 61.5545L122.605 62.3388L122.469 61.0291ZM126.83 64.9078L123.136 67.459L122.981 65.9671L126.68 63.4582L126.83 64.9078Z" fill="white"/>
<path d="M126.886 78.6763C125.959 78.5837 125.178 78.3345 124.545 77.9287C123.915 77.5232 123.449 77.0071 123.149 76.3804C122.852 75.7569 122.741 75.0705 122.815 74.3214C122.89 73.5695 123.136 72.9159 123.551 72.3606C123.968 71.8085 124.528 71.3961 125.229 71.1235C125.93 70.8508 126.742 70.7606 127.667 70.8529C128.594 70.9455 129.373 71.1945 130.003 71.6001C130.637 72.0059 131.102 72.5206 131.399 73.1441C131.699 73.7707 131.812 74.46 131.737 75.212C131.662 75.9611 131.416 76.6117 130.998 77.1639C130.583 77.7191 130.025 78.1331 129.324 78.4057C128.626 78.6786 127.813 78.7688 126.886 78.6763ZM127.015 77.3787C127.722 77.4493 128.329 77.3942 128.835 77.2135C129.344 77.0358 129.742 76.7616 130.03 76.3906C130.321 76.0228 130.492 75.5902 130.541 75.0926C130.591 74.5923 130.51 74.1331 130.298 73.715C130.088 73.2973 129.752 72.9496 129.288 72.6721C128.827 72.3977 128.244 72.2252 127.537 72.1547C126.83 72.0841 126.222 72.1377 125.714 72.3153C125.207 72.496 124.809 72.7703 124.518 73.1381C124.23 73.5062 124.061 73.9404 124.011 74.4408C123.961 74.9383 124.041 75.396 124.251 75.8137C124.463 76.2346 124.799 76.5822 125.26 76.8566C125.724 77.1341 126.309 77.3082 127.015 77.3787Z" fill="white"/>
<path d="M127.977 91.6168L119.663 88.9626L120.031 87.8097L127.478 85.5303L127.502 85.4532L121.405 83.5066L121.805 82.2522L130.119 84.9064L129.749 86.0674L122.293 88.3483L122.268 88.4254L128.374 90.3746L127.977 91.6168Z" fill="white"/>
<path d="M125.175 95.4977L126.171 96.0392L122.944 101.973L121.948 101.431L123.249 99.039L116.578 95.411L117.205 94.258L123.876 97.886L125.175 95.4977Z" fill="white"/>
<path d="M114.565 106.019L113.692 105.344L116.061 102.284L116.934 102.96L114.565 106.019Z" fill="white"/>
<path d="M108.831 106.297L114.799 112.665L110.806 116.407L110.031 115.58L113.063 112.739L111.245 110.798L108.421 113.444L107.649 112.62L110.472 109.974L108.645 108.025L105.576 110.901L104.801 110.074L108.831 106.297Z" fill="white"/>
<path d="M100.357 123.842L95.7174 116.449L96.7425 115.806L103.902 118.869L103.971 118.826L100.568 113.405L101.684 112.705L106.323 120.097L105.291 120.745L98.1227 117.677L98.0541 117.72L101.461 123.148L100.357 123.842Z" fill="white"/>
<path d="M89.9113 119.115L92.5548 118.118L95.6345 126.283L92.9072 127.312C92.1071 127.614 91.3584 127.709 90.6609 127.599C89.9644 127.491 89.3486 127.191 88.8133 126.697C88.2764 126.207 87.848 125.539 87.5282 124.691C87.2074 123.84 87.0872 123.05 87.1677 122.322C87.2454 121.594 87.5146 120.955 87.9751 120.405C88.4365 119.857 89.082 119.427 89.9113 119.115ZM91.7288 119.659L90.3851 120.166C89.7631 120.4 89.2902 120.712 88.9664 121.101C88.6436 121.493 88.4641 121.951 88.4278 122.475C88.3926 123.001 88.4967 123.588 88.7403 124.233C88.9819 124.874 89.2893 125.379 89.6624 125.748C90.0328 126.119 90.4623 126.344 90.9509 126.424C91.4395 126.504 91.9816 126.431 92.577 126.207L93.9964 125.672L91.7288 119.659Z" fill="white"/>
<path d="M76.3743 122.722L79.1985 131.327L77.815 131.391L75.8019 124.719L75.721 124.723L74.2691 131.556L72.8985 131.62L70.8171 124.947L70.7362 124.951L69.3569 131.785L67.9692 131.85L69.9849 123.019L71.3088 122.958L73.4478 129.402L73.5159 129.399L75.0462 122.783L76.3743 122.722Z" fill="white"/>
<path d="M64.4296 122.766L62.9232 131.362L57.5338 130.418L57.7294 129.301L61.8219 130.019L62.2809 127.399L58.4696 126.732L58.6645 125.619L62.4758 126.287L62.9369 123.655L58.7941 122.929L58.9897 121.813L64.4296 122.766Z" fill="white"/>
<path d="M55.0798 120.893L52.0649 129.083L49.0657 127.979C48.4845 127.765 48.0386 127.492 47.728 127.16C47.4164 126.83 47.2259 126.468 47.1563 126.073C47.0858 125.68 47.1251 125.282 47.2743 124.876C47.3999 124.535 47.5685 124.27 47.7802 124.082C47.9909 123.896 48.2276 123.771 48.4902 123.707C48.7492 123.645 49.0157 123.628 49.2899 123.657L49.3193 123.577C49.0523 123.463 48.8194 123.278 48.6207 123.02C48.4183 122.764 48.2863 122.456 48.2246 122.098C48.1629 121.739 48.2101 121.348 48.3661 120.924C48.5202 120.505 48.7572 120.165 49.0772 119.905C49.3935 119.646 49.7914 119.494 50.271 119.45C50.7495 119.408 51.3061 119.504 51.9406 119.737L55.0798 120.893ZM53.454 121.498L51.6704 120.841C51.0786 120.623 50.6125 120.582 50.2721 120.717C49.9318 120.852 49.6983 121.092 49.5717 121.436C49.4765 121.694 49.4545 121.955 49.5057 122.219C49.5568 122.484 49.6801 122.724 49.8756 122.941C50.0684 123.158 50.3302 123.327 50.6607 123.448L52.4883 124.121L53.454 121.498ZM52.1335 125.085L50.4779 124.476C50.2006 124.373 49.9317 124.335 49.6712 124.36C49.408 124.384 49.1758 124.468 48.9745 124.612C48.7695 124.758 48.6185 124.963 48.5213 125.226C48.3967 125.565 48.4108 125.893 48.5637 126.209C48.7165 126.526 49.0382 126.775 49.5288 126.955L51.2164 127.576L52.1335 125.085Z" fill="white"/>
<path d="M40.144 113.688L42.44 115.335L37.3544 122.427L34.9856 120.728C34.2907 120.23 33.7957 119.66 33.5007 119.019C33.204 118.379 33.1124 117.7 33.226 116.981C33.3357 116.263 33.6545 115.535 34.1826 114.799C34.7124 114.06 35.3027 113.522 35.9536 113.185C36.6022 112.846 37.283 112.715 37.9962 112.793C38.7078 112.873 39.4237 113.172 40.144 113.688ZM40.6995 115.502L39.5324 114.665C38.9922 114.278 38.4703 114.058 37.9668 114.004C37.4616 113.953 36.981 114.058 36.5251 114.318C36.0676 114.581 35.6377 114.993 35.2354 115.554C34.8364 116.11 34.5868 116.646 34.4864 117.161C34.3837 117.675 34.4347 118.157 34.6393 118.608C34.8439 119.059 35.2048 119.47 35.7219 119.84L36.9548 120.725L40.6995 115.502Z" fill="white"/>
<path d="M34.0712 108.987L27.7478 115.002L23.9767 111.037L24.798 110.256L27.6615 113.267L29.5882 111.434L26.9214 108.63L27.7396 107.852L30.4064 110.656L32.3423 108.814L29.4435 105.767L30.2648 104.985L34.0712 108.987Z" fill="white"/>
<path d="M19.8342 105.945L24.5189 100.073L24.4662 99.9904L17.1678 101.767L16.4021 100.567L25.4483 98.5193L26.2668 99.8017L20.5999 107.144L19.8342 105.945Z" fill="white"/>
<path d="M22.1986 92.9097L14.0937 96.1464L12.0645 91.065L13.1172 90.6446L14.6581 94.5031L17.1275 93.517L15.6925 89.9236L16.7413 89.5048L18.1763 93.0982L20.6576 92.1073L19.0977 88.2012L20.1504 87.7808L22.1986 92.9097Z" fill="white"/>
<path d="M18.8316 83.7437L10.2898 85.5336L10.0198 84.2448L17.4521 82.6874L16.6411 78.817L17.7505 78.5845L18.8316 83.7437Z" fill="white"/>
<path d="M12.6787 67.8932C13.6104 67.8779 14.4142 68.0352 15.0902 68.365C15.7633 68.6949 16.2851 69.1538 16.6556 69.7415C17.0232 70.3265 17.2132 70.9953 17.2255 71.7481C17.2379 72.5036 17.07 73.1812 16.7219 73.7807C16.3708 74.3775 15.8629 74.8518 15.1981 75.2037C14.5334 75.5555 13.7366 75.7391 12.8077 75.7543C11.876 75.7696 11.0736 75.6123 10.4005 75.2824C9.72453 74.9525 9.20275 74.4951 8.83515 73.9102C8.46466 73.3224 8.27322 72.6507 8.26082 71.8952C8.24847 71.1424 8.41782 70.4677 8.76887 69.8709C9.11703 69.2714 9.6235 68.7957 10.2883 68.4438C10.9502 68.092 11.747 67.9084 12.6787 67.8932ZM12.7001 69.197C11.99 69.2086 11.3939 69.3335 10.912 69.5715C10.4271 69.8068 10.063 70.1253 9.81955 70.5271C9.57322 70.9261 9.45416 71.3755 9.46236 71.8754C9.47061 72.3782 9.60438 72.8249 9.86367 73.2156C10.1201 73.6064 10.4945 73.9128 10.9869 74.1348C11.4763 74.3541 12.0761 74.4579 12.7862 74.4463C13.4964 74.4346 14.0939 74.3111 14.5787 74.0759C15.0607 73.8378 15.4248 73.5193 15.6711 73.1203C15.9146 72.7214 16.0322 72.2705 16.024 71.7678C16.0158 71.2678 15.8835 70.8225 15.627 70.4318C15.3677 70.0382 14.9933 69.7318 14.5038 69.5126C14.0115 69.2905 13.4102 69.1853 12.7001 69.197Z" fill="white"/>
<path d="M17.3163 63.8231L8.73717 62.2219L9.30791 59.1639C9.43249 58.4965 9.65717 57.9662 9.98197 57.5731C10.3068 57.18 10.7003 56.9139 11.1627 56.7747C11.6223 56.6351 12.1145 56.6143 12.6396 56.7123C13.1674 56.8108 13.6216 57.0097 14.0021 57.309C14.3803 57.605 14.6511 57.9966 14.8145 58.4837C14.9757 58.9675 14.9942 59.5417 14.8702 60.2064L14.4777 62.3093L13.3801 62.1044L13.7507 60.1188C13.8294 59.6971 13.8207 59.3415 13.7245 59.0519C13.6254 58.7617 13.4603 58.5315 13.2291 58.3612C12.9979 58.1909 12.7204 58.0755 12.3964 58.015C12.0725 57.9546 11.7733 57.9623 11.4991 58.0383C11.2248 58.1143 10.9917 58.2716 10.7997 58.5103C10.6083 58.7463 10.4725 59.0793 10.3922 59.5093L10.0888 61.1347L17.5579 62.5287L17.3163 63.8231Z" fill="white"/>
<path d="M11.1971 50.7918L11.814 49.3177L19.1448 49.3738L19.1843 49.2795L13.9988 44.0974L14.6157 42.6232L22.6664 45.9925L22.1827 47.1483L16.357 44.7101L16.3257 44.7848L21.146 49.5923L20.7446 50.5515L13.933 50.491L13.9018 50.5656L19.7314 53.0054L19.2477 54.1611L11.1971 50.7918Z" fill="white"/>
<path d="M24.4321 42.7966L17.2479 37.8415L20.3546 33.3374L21.2877 33.9809L18.9286 37.4011L21.1176 38.9109L23.3145 35.7257L24.2441 36.3669L22.0472 39.5521L24.2466 41.0691L26.6346 37.6068L27.5677 38.2504L24.4321 42.7966Z" fill="white"/>
<path d="M29.0313 23.7438L35.1398 29.9768L34.2755 30.8239L26.6272 29.3576L26.5694 29.4143L31.0494 33.9856L30.1089 34.9072L24.0004 28.6742L24.8708 27.8211L32.5281 29.2905L32.5859 29.2339L28.0999 24.6565L29.0313 23.7438Z" fill="white"/>
<path d="M33.0339 21.8089L32.406 20.8651L38.0292 17.1236L38.6571 18.0673L36.3901 19.5757L40.5967 25.8978L39.504 26.6249L35.2974 20.3028L33.0339 21.8089Z" fill="white"/>
<path d="M50.1036 16.7384L49.5912 15.0127L48.4774 16.4315L47.7734 15.8186L49.026 14.514L47.2347 14.2644L47.4084 13.3473L49.1614 13.7726L48.496 12.1L49.3697 11.7971L49.8821 13.5228L50.996 12.104L51.7 12.7169L50.4473 14.0214L52.2386 14.2711L52.0649 15.1882L50.3119 14.7629L50.9773 16.4355L50.1036 16.7384Z" fill="white"/>
<path d="M61.9598 17.4296L61.2239 8.73338L66.676 8.27198L66.7715 9.40146L62.6315 9.75183L62.8557 12.4014L66.7113 12.0752L66.8065 13.2004L62.951 13.5267L63.1763 16.189L67.3673 15.8344L67.4629 16.9639L61.9598 17.4296Z" fill="white"/>
<path d="M71.7654 16.8347L72.6323 8.15055L75.7277 8.45954C76.4033 8.52698 76.9507 8.70582 77.37 8.99606C77.7893 9.2863 78.0878 9.65585 78.2657 10.1047C78.4439 10.5508 78.5065 11.0395 78.4534 11.571C78.4001 12.1052 78.2404 12.5746 77.9745 12.9792C77.7117 13.3812 77.3445 13.6843 76.8731 13.8885C76.4047 14.0901 75.8341 14.1574 75.1613 14.0902L73.0327 13.8777L73.1436 12.7668L75.1535 12.9674C75.5804 13.01 75.934 12.9711 76.2144 12.8506C76.4951 12.7273 76.7104 12.5433 76.8605 12.2984C77.0105 12.0536 77.1019 11.7672 77.1347 11.4393C77.1674 11.1114 77.1343 10.814 77.0353 10.5472C76.9363 10.2804 76.7597 10.0615 76.5056 9.89048C76.2542 9.71978 75.9109 9.61271 75.4756 9.56925L73.8303 9.40502L73.0756 16.9655L71.7654 16.8347Z" fill="white"/>
<path d="M84.4464 9.90056L82.3754 18.3785L81.0962 18.0661L83.1673 9.58809L84.4464 9.90056Z" fill="white"/>
<path d="M88.0615 19.9285L89.3936 10.9703L90.6592 11.5327L89.4685 18.3993L89.5424 18.4322L93.9031 12.9742L95.157 13.5314L94.0268 20.4296L94.1008 20.4625L98.3969 14.9712L99.6665 15.5353L93.9066 22.5259L92.6956 21.9878L93.6717 15.2682L93.6094 15.2406L89.2765 20.4684L88.0615 19.9285Z" fill="white"/>
<path d="M98.76 25.2147L103.949 18.1976L108.348 21.4509L107.674 22.3623L104.334 19.8919L102.753 22.03L105.864 24.3306L105.192 25.2385L102.081 22.9379L100.493 25.0862L103.874 27.587L103.2 28.4984L98.76 25.2147Z" fill="white"/>
<path d="M106.358 31.1087L112.726 25.1411L114.911 27.4732C115.335 27.9251 115.611 28.3692 115.739 28.8055C115.87 29.2398 115.878 29.6491 115.763 30.0333C115.65 30.4155 115.436 30.7542 115.121 31.0495C114.855 31.2982 114.586 31.4593 114.312 31.5328C114.04 31.6043 113.773 31.6097 113.509 31.5489C113.25 31.4883 113.004 31.3838 112.772 31.2356L112.71 31.2938C112.898 31.515 113.022 31.7854 113.084 32.1049C113.15 32.4246 113.131 32.7586 113.025 33.1069C112.919 33.4552 112.701 33.7838 112.372 34.0927C112.046 34.3977 111.682 34.5949 111.279 34.6843C110.88 34.7739 110.457 34.731 110.008 34.5556C109.562 34.3783 109.107 34.043 108.645 33.5496L106.358 31.1087ZM108.082 31.2974L109.382 32.6842C109.813 33.1443 110.211 33.3904 110.576 33.4224C110.94 33.4543 111.256 33.345 111.524 33.0944C111.725 32.9059 111.862 32.6823 111.935 32.4233C112.007 32.1644 112.005 31.894 111.928 31.6121C111.852 31.3323 111.694 31.0639 111.453 30.8069L110.122 29.3858L108.082 31.2974ZM110.871 28.6836L112.077 29.9709C112.279 30.1865 112.503 30.3415 112.747 30.4358C112.993 30.5322 113.238 30.5613 113.483 30.523C113.731 30.4848 113.958 30.3696 114.163 30.1773C114.426 29.9306 114.561 29.6315 114.566 29.2799C114.571 28.9283 114.395 28.5619 114.038 28.1804L112.808 26.8683L110.871 28.6836Z" fill="white"/>
<path d="M119.199 41.3042L120.813 40.5081L119.227 39.6495L119.712 38.8522L121.209 39.8669L121.153 38.0591L122.087 38.0757L121.963 39.8753L123.5 38.9373L123.945 39.7475L122.331 40.5436L123.917 41.4022L123.432 42.1995L121.935 41.1848L121.991 42.9925L121.057 42.9759L121.181 41.1764L119.645 42.1143L119.199 41.3042Z" fill="white"/>
</svg>
