<svg width="175" height="175" viewBox="0 0 175 175" fill="none" xmlns="http://www.w3.org/2000/svg">
<path d="M119.194 100.153H109.175C108.979 100.153 108.815 100.087 108.684 99.9562C108.553 99.8252 108.488 99.6615 108.488 99.465V92.6675C108.488 91.8292 108.606 91.0434 108.841 90.3099C109.077 89.5634 109.346 88.9478 109.647 88.4632C109.961 87.9655 110.407 87.4481 110.983 86.9112C111.572 86.3611 112.057 85.9485 112.437 85.6734C112.816 85.3853 113.353 85.0055 114.047 84.534C114.663 84.1149 115.134 83.7874 115.462 83.5517C115.789 83.3028 116.182 82.9754 116.641 82.5694C117.112 82.1502 117.459 81.7639 117.682 81.4102C117.904 81.0566 118.101 80.6309 118.271 80.1332C118.454 79.6355 118.546 79.1051 118.546 78.5419V73.316H109.824V84.6126C109.824 84.7828 109.758 84.9334 109.627 85.0644C109.496 85.1954 109.346 85.2609 109.175 85.2609C108.979 85.2609 108.815 85.2019 108.684 85.0841C108.553 84.9531 108.488 84.7959 108.488 84.6126V72.6284C108.488 72.445 108.553 72.2879 108.684 72.1569C108.815 72.0128 108.979 71.9408 109.175 71.9408H119.194C119.391 71.9408 119.555 72.0128 119.686 72.1569C119.817 72.2879 119.882 72.445 119.882 72.6284V78.5419C119.882 79.2361 119.777 79.8975 119.568 80.5262C119.358 81.1417 119.116 81.6656 118.841 82.0978C118.566 82.5301 118.166 82.9885 117.642 83.4731C117.119 83.9446 116.68 84.3113 116.326 84.5733C115.973 84.8352 115.468 85.1888 114.814 85.6342C114.316 85.9747 113.943 86.2301 113.694 86.4004C113.458 86.5706 113.131 86.826 112.712 87.1666C112.292 87.494 111.972 87.7756 111.749 88.0113C111.539 88.2471 111.284 88.5549 110.983 88.9347C110.695 89.3014 110.479 89.6616 110.335 90.0152C110.204 90.3558 110.086 90.7618 109.981 91.2333C109.876 91.6917 109.824 92.1698 109.824 92.6675V98.8167H118.546V85.8699C118.546 85.6865 118.612 85.5294 118.743 85.3984C118.874 85.2543 119.024 85.1823 119.194 85.1823C119.391 85.1823 119.555 85.2543 119.686 85.3984C119.817 85.5294 119.882 85.6865 119.882 85.8699V99.465C119.882 99.6615 119.817 99.8252 119.686 99.9562C119.555 100.087 119.391 100.153 119.194 100.153Z" fill="#0A8F0D"/>
<path d="M90.6305 100.153H80.6901C80.4937 100.153 80.33 100.087 80.199 99.9562C80.0681 99.8252 80.0026 99.6615 80.0026 99.465V88.2864C80.0026 85.9157 80.8408 83.8987 82.5171 82.2354C84.2066 80.5589 86.23 79.7207 88.5875 79.7207H93.6166C94.1405 79.7207 94.5857 79.904 94.9524 80.2708C95.3192 80.6375 95.5025 81.0828 95.5025 81.6067V82.4515C95.5025 82.9885 95.3192 83.4469 94.9524 83.8267C94.5857 84.1934 94.1405 84.3768 93.6166 84.3768H90.8663C90.696 84.3768 90.5389 84.3113 90.3948 84.1803C90.2507 84.0363 90.1787 83.8726 90.1787 83.6892C90.1787 83.5189 90.2442 83.3683 90.3752 83.2373C90.5192 83.0933 90.6829 83.0212 90.8663 83.0212H93.6166C93.7606 83.0212 93.8785 82.9688 93.9702 82.864C94.075 82.7462 94.1274 82.6086 94.1274 82.4515V81.6067C94.1274 81.4495 94.075 81.3186 93.9702 81.2138C93.8785 81.0959 93.7606 81.037 93.6166 81.037H88.5875C86.5968 81.037 84.8876 81.7508 83.4601 83.1784C82.0457 84.5929 81.3384 86.2956 81.3384 88.2864V98.8167H89.943V90.8207C89.943 90.6374 90.0084 90.4868 90.1394 90.3689C90.2704 90.2379 90.4341 90.1724 90.6305 90.1724H97.192C99.1303 90.1724 100.78 89.4913 102.143 88.1292C103.505 86.7671 104.186 85.1168 104.186 83.1784V80.2708C104.186 78.3454 103.505 76.7083 102.143 75.3592C100.794 73.9971 99.1565 73.316 97.2313 73.316H81.3384V80.5655C81.3384 80.7619 81.273 80.9256 81.142 81.0566C81.0241 81.1745 80.8735 81.2334 80.6901 81.2334C80.4937 81.2334 80.33 81.1745 80.199 81.0566C80.0681 80.9256 80.0026 80.7619 80.0026 80.5655V72.6284C80.0026 72.445 80.0681 72.2879 80.199 72.1569C80.33 72.0128 80.4937 71.9408 80.6901 71.9408H97.2313C99.5232 71.9408 101.481 72.7594 103.105 74.3966C104.742 76.0206 105.561 77.9787 105.561 80.2708V83.1784C105.561 85.4704 104.742 87.4351 103.105 89.0722C101.481 90.6963 99.5101 91.5083 97.192 91.5083H91.2788V99.465C91.2788 99.6615 91.2133 99.8252 91.0824 99.9562C90.9645 100.087 90.8139 100.153 90.6305 100.153Z" fill="#0A8F0D"/>
<path d="M75.7985 100.153H55.2695C55.073 100.153 54.9093 100.087 54.7783 99.9562C54.6474 99.8121 54.5819 99.6484 54.5819 99.465V90.1331C54.5819 88.2471 55.0468 86.5051 55.9767 84.9072C56.9197 83.2963 58.1966 82.0258 59.8075 81.0959C61.4184 80.1529 63.1668 79.6814 65.0527 79.6814H75.111V73.316H55.9178V79.76C55.9178 79.9302 55.8523 80.0808 55.7213 80.2118C55.6034 80.3297 55.4528 80.3886 55.2695 80.3886C55.073 80.3886 54.9093 80.3297 54.7783 80.2118C54.6474 80.0939 54.5819 79.9433 54.5819 79.76V72.6284C54.5819 72.445 54.6474 72.2879 54.7783 72.1569C54.9093 72.0128 55.073 71.9408 55.2695 71.9408H75.7985C75.9688 71.9408 76.1194 72.0128 76.2504 72.1569C76.3944 72.2879 76.4665 72.445 76.4665 72.6284V80.3493C76.4665 80.5327 76.3944 80.6964 76.2504 80.8405C76.1194 80.9715 75.9688 81.037 75.7985 81.037H65.0527C63.4025 81.037 61.8768 81.4495 60.4754 82.2747C59.0741 83.0867 57.9608 84.1934 57.1357 85.5949C56.3238 86.9832 55.9178 88.4959 55.9178 90.1331V98.7774L75.111 98.8167V92.4317H65.2884C65.1182 92.4317 64.9676 92.3662 64.8366 92.2353C64.7056 92.0912 64.6402 91.9275 64.6402 91.7441V88.974C64.6402 88.7906 64.7056 88.6335 64.8366 88.5025C64.9676 88.3584 65.1182 88.2864 65.2884 88.2864H72.9696V84.2196H65.2884C65.1182 84.2196 64.9676 84.1541 64.8366 84.0232C64.7056 83.8791 64.6402 83.7154 64.6402 83.532C64.6402 83.3487 64.7056 83.1915 64.8366 83.0605C64.9676 82.9164 65.1182 82.8444 65.2884 82.8444H73.6572C73.8275 82.8444 73.9781 82.9164 74.1091 83.0605C74.24 83.1915 74.3055 83.3487 74.3055 83.532V88.974C74.3055 89.1574 74.24 89.3145 74.1091 89.4455C73.9781 89.5765 73.8275 89.642 73.6572 89.642H65.976V91.0565H75.7985C75.9688 91.0565 76.1194 91.1285 76.2504 91.2726C76.3944 91.4036 76.4665 91.5607 76.4665 91.7441V99.465C76.4665 99.6484 76.3944 99.8121 76.2504 99.9562C76.1194 100.087 75.9688 100.153 75.7985 100.153Z" fill="#0A8F0D"/>
<path fill-rule="evenodd" clip-rule="evenodd" d="M87.2319 135.051C113.063 135.051 134.003 114.11 134.003 88.2776C134.003 62.4453 113.063 41.5041 87.2319 41.5041C61.4011 41.5041 40.461 62.4453 40.461 88.2776C40.461 114.11 61.4011 135.051 87.2319 135.051ZM87.2319 136.057C113.618 136.057 135.009 114.665 135.009 88.2776C135.009 61.8898 113.618 40.4982 87.2319 40.4982C60.8456 40.4982 39.4552 61.8898 39.4552 88.2776C39.4552 114.665 60.8456 136.057 87.2319 136.057Z" fill="#0A8F0D"/>
<path fill-rule="evenodd" clip-rule="evenodd" d="M87.7349 157.181C126.065 157.181 157.137 126.106 157.137 87.7747C157.137 49.4429 126.065 18.3688 87.7349 18.3688C49.4052 18.3688 18.3329 49.4429 18.3329 87.7747C18.3329 126.106 49.4052 157.181 87.7349 157.181ZM87.7349 158.186C126.62 158.186 158.143 126.662 158.143 87.7747C158.143 48.8873 126.62 17.3629 87.7349 17.3629C48.8497 17.3629 17.327 48.8873 17.327 87.7747C17.327 126.662 48.8497 158.186 87.7349 158.186Z" fill="#0A8F0D"/>
<path d="M129.117 54.06L136.257 48.9523L139.424 53.3797L138.497 54.0431L136.1 50.6929L133.925 52.2492L136.094 55.2821L135.171 55.943L133.001 52.9101L129.888 55.1372L129.117 54.06Z" fill="#0A8F0D"/>
<path d="M133.936 61.0752L141.831 57.2372L143.199 60.0514C143.496 60.6631 143.638 61.2219 143.623 61.7278C143.61 62.2363 143.466 62.6814 143.19 63.063C142.918 63.4434 142.539 63.7516 142.053 63.9877C141.57 64.2226 141.095 64.3279 140.629 64.3035C140.166 64.2804 139.735 64.1152 139.335 63.8079C138.935 63.5031 138.587 63.0448 138.29 62.4331L137.254 60.3013L138.279 59.8028L139.263 61.8267C139.45 62.2122 139.658 62.4989 139.886 62.6868C140.115 62.8772 140.362 62.9777 140.628 62.9884C140.894 62.999 141.174 62.9325 141.47 62.7888C141.768 62.6439 141.998 62.4605 142.161 62.2387C142.324 62.0194 142.404 61.7596 142.401 61.4592C142.402 61.1601 142.307 60.814 142.116 60.4208L141.389 58.925L134.515 62.2664L133.936 61.0752ZM139.393 63.241L136.779 66.9233L136.119 65.5663L138.752 61.9226L139.393 63.241Z" fill="#0A8F0D"/>
<path d="M144.182 76.236C143.274 76.4675 142.451 76.5004 141.713 76.3347C140.977 76.1682 140.36 75.8405 139.861 75.3514C139.365 74.8643 139.024 74.2539 138.837 73.5201C138.649 72.7835 138.656 72.0814 138.857 71.4137C139.062 70.7481 139.449 70.1659 140.018 69.667C140.586 69.1682 141.323 68.8034 142.229 68.5726C143.137 68.3411 143.959 68.3085 144.694 68.4749C145.432 68.6407 146.049 68.967 146.545 69.4541C147.044 69.9432 147.388 70.556 147.575 71.2926C147.762 72.0264 147.753 72.7261 147.549 73.3917C147.347 74.0594 146.962 74.6426 146.393 75.1415C145.827 75.6397 145.09 76.0045 144.182 76.236ZM143.858 74.965C144.55 74.7885 145.105 74.5278 145.521 74.1828C145.941 73.8399 146.223 73.4435 146.368 72.9938C146.516 72.546 146.528 72.0785 146.404 71.5911C146.279 71.101 146.044 70.6949 145.7 70.3728C145.358 70.05 144.921 69.8372 144.387 69.7343C143.857 69.6335 143.246 69.6713 142.554 69.8477C141.862 70.0242 141.306 70.2839 140.886 70.6268C140.47 70.9718 140.187 71.3681 140.039 71.8158C139.893 72.2629 139.883 72.7314 140.008 73.2216C140.132 73.7089 140.365 74.114 140.707 74.4368C141.052 74.7616 141.49 74.9745 142.02 75.0753C142.553 75.1782 143.166 75.1414 143.858 74.965Z" fill="#0A8F0D"/>
<path d="M149.665 88.0922L140.894 88.4437L140.845 87.2273L147.099 82.511L147.096 82.4296L140.663 82.6874L140.61 81.3639L149.382 81.0125L149.431 82.2374L143.168 86.9584L143.171 87.0397L149.613 86.7816L149.665 88.0922Z" fill="#0A8F0D"/>
<path d="M148.352 92.7244L149.48 92.8937L148.471 99.6124L147.343 99.4431L147.75 96.7344L140.197 95.6002L140.393 94.2946L147.946 95.4289L148.352 92.7244Z" fill="#0A8F0D"/>
<path d="M141.943 106.32L140.886 105.982L142.072 102.275L143.129 102.613L141.943 106.32Z" fill="#0A8F0D"/>
<path d="M136.619 108.555L144.451 112.522L141.964 117.432L140.947 116.917L142.835 113.188L140.449 111.98L138.691 115.452L137.677 114.939L139.436 111.466L137.038 110.252L135.127 114.026L134.11 113.511L136.619 108.555Z" fill="#0A8F0D"/>
<path d="M134.645 128.054L127.717 122.663L128.465 121.702L136.286 122.134L136.336 122.07L131.255 118.116L132.068 117.071L138.996 122.462L138.243 123.43L130.413 122.996L130.363 123.06L135.45 127.019L134.645 128.054Z" fill="#0A8F0D"/>
<path d="M123.146 127.18L125.302 125.328L131.022 131.987L128.798 133.897C128.145 134.458 127.471 134.806 126.773 134.941C126.078 135.079 125.393 135.007 124.717 134.725C124.041 134.446 123.406 133.961 122.812 133.27C122.216 132.576 121.831 131.871 121.656 131.155C121.48 130.44 121.514 129.744 121.76 129.065C122.008 128.389 122.47 127.761 123.146 127.18ZM125.051 127.069L123.956 128.01C123.448 128.446 123.109 128.903 122.937 129.383C122.766 129.864 122.754 130.359 122.9 130.866C123.048 131.376 123.348 131.894 123.8 132.421C124.249 132.943 124.713 133.315 125.193 133.536C125.671 133.758 126.154 133.823 126.643 133.731C127.133 133.638 127.62 133.383 128.106 132.966L129.263 131.972L125.051 127.069Z" fill="#0A8F0D"/>
<path d="M111.592 135.246L117.222 142.408L115.937 142.945L111.739 137.331L111.663 137.363L112.642 144.321L111.368 144.853L107.105 139.262L107.03 139.293L108.078 146.228L106.788 146.766L105.656 137.726L106.886 137.212L111.124 142.567L111.188 142.541L110.358 135.762L111.592 135.246Z" fill="#0A8F0D"/>
<path d="M100.318 139.398L101.851 148.041L96.4325 149.003L96.2334 147.88L100.348 147.15L99.8809 144.516L96.0489 145.196L95.8505 144.078L99.6825 143.398L99.213 140.752L95.0476 141.491L94.8484 140.368L100.318 139.398Z" fill="#0A8F0D"/>
<path d="M90.8364 140.844L90.8043 149.622L87.5897 149.61C86.9668 149.608 86.4514 149.503 86.0435 149.296C85.6356 149.092 85.3309 148.815 85.1293 148.466C84.9277 148.119 84.8277 147.729 84.8293 147.294C84.8306 146.928 84.8989 146.62 85.0341 146.369C85.1693 146.121 85.3501 145.922 85.5764 145.771C85.7998 145.623 86.0459 145.516 86.3148 145.448L86.3151 145.362C86.0237 145.347 85.7397 145.252 85.4632 145.076C85.1838 144.904 84.9532 144.659 84.7715 144.341C84.5898 144.023 84.4998 143.637 84.5014 143.182C84.5031 142.734 84.6103 142.331 84.823 141.975C85.0329 141.621 85.3568 141.341 85.7948 141.134C86.2327 140.93 86.7917 140.829 87.4718 140.831L90.8364 140.844ZM89.5079 141.975L87.5962 141.968C86.9619 141.965 86.5071 142.087 86.2319 142.331C85.9567 142.576 85.8184 142.883 85.817 143.251C85.816 143.529 85.8851 143.783 86.0243 144.015C86.1634 144.247 86.3628 144.432 86.6223 144.57C86.879 144.708 87.1845 144.778 87.5388 144.779L89.4976 144.787L89.5079 141.975ZM89.4938 145.82L87.7193 145.813C87.4221 145.812 87.1548 145.868 86.9172 145.982C86.6767 146.095 86.4861 146.254 86.3454 146.46C86.2017 146.668 86.1294 146.913 86.1283 147.196C86.127 147.559 86.2531 147.864 86.5065 148.111C86.7599 148.357 87.1495 148.482 87.6752 148.483L89.484 148.49L89.4938 145.82Z" fill="#0A8F0D"/>
<path d="M74.2411 139.172L76.9775 139.938L74.6106 148.392L71.7874 147.601C70.9592 147.369 70.2953 147.001 69.7957 146.496C69.2954 145.994 68.9752 145.383 68.8352 144.664C68.6917 143.948 68.7428 143.15 68.9886 142.273C69.2352 141.392 69.608 140.68 70.1072 140.138C70.6036 139.594 71.2022 139.236 71.9031 139.065C72.6032 138.896 73.3826 138.932 74.2411 139.172ZM75.3901 140.696L73.9992 140.306C73.3553 140.126 72.7862 140.097 72.2919 140.22C71.7968 140.345 71.3786 140.609 71.0373 141.012C70.6952 141.418 70.4306 141.955 70.2433 142.624C70.0577 143.287 70.006 143.879 70.0885 144.401C70.1681 144.922 70.3822 145.36 70.7307 145.716C71.0791 146.072 71.5615 146.336 72.1779 146.509L73.6473 146.92L75.3901 140.696Z" fill="#0A8F0D"/>
<path d="M66.8839 136.817L62.9765 144.678L58.0483 142.228L58.5558 141.207L62.298 143.068L63.4885 140.673L60.0035 138.94L60.5091 137.923L63.9941 139.655L65.1904 137.249L61.4022 135.366L61.9097 134.345L66.8839 136.817Z" fill="#0A8F0D"/>
<path d="M52.381 138.84L54.789 131.678L54.7107 131.618L48.4237 135.808L47.2872 134.938L55.1329 129.89L56.3476 130.82L53.5175 139.71L52.381 138.84Z" fill="#0A8F0D"/>
<path d="M50.1316 125.706L43.5846 131.553L39.9186 127.448L40.7689 126.689L43.5527 129.806L45.5475 128.024L42.955 125.121L43.8022 124.365L46.3946 127.267L48.399 125.477L45.581 122.322L46.4313 121.562L50.1316 125.706Z" fill="#0A8F0D"/>
<path d="M43.796 118.2L36.3383 122.83L35.6397 121.705L42.1288 117.676L40.0307 114.297L40.9993 113.695L43.796 118.2Z" fill="#0A8F0D"/>
<path d="M32.5277 105.335C33.403 105 34.2169 104.872 34.9693 104.951C35.719 105.031 36.37 105.285 36.9224 105.713C37.471 106.14 37.8807 106.707 38.1513 107.414C38.423 108.124 38.4974 108.822 38.3746 109.509C38.248 110.193 37.9312 110.816 37.4239 111.378C36.9166 111.939 36.2266 112.387 35.354 112.721C34.4786 113.056 33.6661 113.183 32.9164 113.103C32.164 113.023 31.5135 112.771 30.9648 112.344C30.4124 111.916 30.0004 111.347 29.7288 110.637C29.4582 109.93 29.3861 109.234 29.5126 108.549C29.6354 107.863 29.9505 107.239 30.4578 106.677C30.9624 106.117 31.6523 105.669 32.5277 105.335ZM32.9964 106.56C32.3293 106.815 31.8088 107.138 31.4352 107.529C31.0579 107.918 30.8233 108.344 30.7314 108.808C30.6358 109.27 30.6779 109.735 30.8577 110.205C31.0384 110.678 31.3185 111.054 31.698 111.334C32.0748 111.615 32.5341 111.776 33.0758 111.816C33.6139 111.855 34.2165 111.747 34.8837 111.492C35.5509 111.236 36.0731 110.914 36.4504 110.525C36.8241 110.134 37.0587 109.708 37.1542 109.246C37.2471 108.785 37.2032 108.318 37.0224 107.846C36.8427 107.376 36.5644 107.001 36.1876 106.72C35.8072 106.437 35.3479 106.276 34.8098 106.237C34.2681 106.197 33.6636 106.304 32.9964 106.56Z" fill="#0A8F0D"/>
<path d="M35.5108 99.892L26.8513 101.33L26.3388 98.2431C26.2269 97.5694 26.2568 96.9908 26.4286 96.5075C26.6003 96.0242 26.8808 95.6373 27.2699 95.3467C27.6562 95.0566 28.1144 94.8676 28.6443 94.7796C29.1771 94.6911 29.6748 94.7229 30.1374 94.8749C30.5968 95.0246 30.9874 95.3015 31.3094 95.7057C31.6282 96.1076 31.8432 96.644 31.9546 97.3149L32.3071 99.4376L31.1993 99.6216L30.8665 97.6173C30.7958 97.1916 30.6652 96.8584 30.4746 96.6178C30.2812 96.3776 30.0459 96.2168 29.7688 96.1354C29.4917 96.0539 29.1897 96.0403 28.8627 96.0946C28.5357 96.1489 28.2557 96.2592 28.0225 96.4253C27.7894 96.5915 27.6232 96.8204 27.5239 97.1121C27.4242 97.401 27.4103 97.7625 27.4824 98.1966L27.7548 99.8373L35.2939 98.5853L35.5108 99.892Z" fill="#0A8F0D"/>
<path d="M25.2442 89.6797L25.3202 88.0741L32.2683 85.6051L32.2732 85.5024L25.5893 82.3881L25.6653 80.7825L34.4336 81.1975L34.3741 82.4563L28.029 82.156L28.0252 82.2373L34.235 85.1232L34.1855 86.1679L27.7267 88.4541L27.7228 88.5354L34.0721 88.836L34.0125 90.0948L25.2442 89.6797Z" fill="#0A8F0D"/>
<path d="M35.0031 77.5692L26.5082 75.3571L27.895 70.0309L28.9984 70.3183L27.9453 74.3627L30.5336 75.0367L31.5143 71.2702L32.6134 71.5564L31.6327 75.3229L34.2335 76.0001L35.2995 71.9059L36.4028 72.1933L35.0031 77.5692Z" fill="#0A8F0D"/>
<path d="M32.7956 57.9778L40.7135 61.7679L40.1879 62.8659L32.4546 64.1112L32.4195 64.1847L38.2264 66.9643L37.6546 68.159L29.7367 64.3689L30.266 63.2631L38.0089 62.0177L38.044 61.9443L32.2294 59.1609L32.7956 57.9778Z" fill="#0A8F0D"/>
<path d="M35.9132 54.7719L34.995 54.0959L39.0227 48.6247L39.9409 49.3007L38.3171 51.5064L44.468 56.035L43.6853 57.0982L37.5344 52.5696L35.9132 54.7719Z" fill="#0A8F0D"/>
<path d="M50.3026 44.1066L49.2246 42.6518L48.66 44.3761L47.7837 44.0389L48.5189 42.3749L46.7399 42.7552L46.5886 41.8285L48.3918 41.6274L47.1875 40.2754L47.9091 39.6885L48.987 41.1434L49.5517 39.4191L50.428 39.7562L49.6928 41.4203L51.4718 41.0399L51.623 41.9666L49.8199 42.1677L51.0242 43.5198L50.3026 44.1066Z" fill="#0A8F0D"/>
<path d="M61.7465 40.681L58.0593 32.7144L63.0537 30.4026L63.5326 31.4373L59.7401 33.1928L60.8635 35.6201L64.3954 33.9853L64.8725 35.0161L61.3406 36.651L62.4695 39.09L66.3086 37.3129L66.7875 38.3476L61.7465 40.681Z" fill="#0A8F0D"/>
<path d="M70.8097 36.7453L68.6416 28.2387L71.6736 27.4658C72.3354 27.2971 72.9143 27.2778 73.4104 27.4079C73.9066 27.538 74.3159 27.7846 74.6384 28.1477C74.9603 28.508 75.1875 28.9484 75.3202 29.469C75.4536 29.9924 75.4642 30.491 75.352 30.9649C75.2419 31.4353 74.9992 31.8481 74.6238 32.2033C74.2505 32.555 73.7343 32.8149 73.0753 32.9829L70.9903 33.5143L70.7129 32.4261L72.6817 31.9243C73.0998 31.8177 73.4206 31.6592 73.6442 31.4489C73.8671 31.2358 74.0073 30.9877 74.0649 30.7047C74.1225 30.4216 74.1104 30.1195 74.0285 29.7983C73.9466 29.4771 73.813 29.2074 73.6277 28.9892C73.4423 28.7711 73.2001 28.6249 72.9011 28.5507C72.6048 28.4759 72.2435 28.4928 71.8171 28.6015L70.2055 29.0122L72.0931 36.4181L70.8097 36.7453Z" fill="#0A8F0D"/>
<path d="M80.41 25.8284L81.369 34.5544L80.0525 34.6991L79.0935 25.9731L80.41 25.8284Z" fill="#0A8F0D"/>
<path d="M87.2766 34.0633L85.4539 25.1375L86.8436 25.2337L88.0803 32.1338L88.1616 32.1394L90.4055 25.4802L91.7823 25.5755L93.0872 32.4847L93.1684 32.4903L95.3399 25.8218L96.7339 25.9182L93.6948 34.5075L92.3649 34.4155L90.976 27.7282L90.9076 27.7235L88.6107 34.1556L87.2766 34.0633Z" fill="#0A8F0D"/>
<path d="M99.2069 35.3793L101.697 26.9614L106.975 28.5229L106.651 29.6163L102.644 28.4305L101.885 30.9954L105.617 32.0996L105.295 33.1888L101.563 32.0846L100.8 34.6617L104.857 35.8621L104.534 36.9554L99.2069 35.3793Z" fill="#0A8F0D"/>
<path d="M108.416 38.3366L112.382 30.5051L115.249 31.9575C115.805 32.239 116.219 32.5638 116.49 32.932C116.763 33.2976 116.911 33.6818 116.935 34.0844C116.96 34.4846 116.874 34.8784 116.678 35.2659C116.512 35.5922 116.313 35.8372 116.08 36.0009C115.848 36.162 115.597 36.2591 115.327 36.2922C115.061 36.3241 114.793 36.3099 114.522 36.2497L114.483 36.3262C114.737 36.4706 114.948 36.6832 115.116 36.964C115.289 37.2435 115.385 37.566 115.405 37.9316C115.424 38.2972 115.332 38.6827 115.126 39.088C114.924 39.4883 114.647 39.8 114.297 40.0231C113.951 40.245 113.536 40.3502 113.052 40.3387C112.569 40.3248 112.024 40.1641 111.417 39.8569L108.416 38.3366ZM110.11 37.9217L111.816 38.7854C112.382 39.072 112.842 39.1677 113.198 39.0724C113.554 38.9771 113.815 38.765 113.982 38.4361C114.107 38.1889 114.159 37.9303 114.139 37.6606C114.119 37.3908 114.023 37.136 113.853 36.8961C113.686 36.6576 113.444 36.4583 113.128 36.2982L111.381 35.4131L110.11 37.9217ZM111.847 34.4915L113.43 35.2933C113.695 35.4276 113.96 35.4973 114.223 35.5025C114.489 35.509 114.73 35.4521 114.948 35.3318C115.17 35.2102 115.345 35.0233 115.473 34.7709C115.637 34.4471 115.661 34.1182 115.545 33.784C115.429 33.4499 115.136 33.164 114.667 32.9264L113.054 32.1092L111.847 34.4915Z" fill="#0A8F0D"/>
<path d="M124.06 43.5558L125.312 42.2479L123.517 41.9821L123.702 41.0614L125.466 41.5055L124.791 39.8161L125.679 39.5106L126.181 41.2541L127.311 39.839L128.011 40.4514L126.759 41.7593L128.553 42.0251L128.369 42.9457L126.605 42.5017L127.28 44.1911L126.392 44.4965L125.89 42.753L124.76 44.1682L124.06 43.5558Z" fill="#0A8F0D"/>
</svg>
