<svg width="226" height="281" viewBox="0 0 226 281" fill="none" xmlns="http://www.w3.org/2000/svg">
<g opacity="0.8">
<rect x="98" y="227" width="60.7777" height="26.0476" rx="5" fill="url(#paint0_linear_1_150)" fill-opacity="0.5"/>
<path fill-rule="evenodd" clip-rule="evenodd" d="M127.184 111.227L82.2504 186.49C81.4875 187.768 81.5274 189.37 82.3529 190.608L106.402 226.682H150.464L173.969 192.714C175.708 190.202 175.801 186.9 174.206 184.294L129.493 111.227H127.184ZM128.758 199.982C135.418 199.982 140.817 194.582 140.817 187.922C140.817 181.262 135.418 175.863 128.758 175.863C122.098 175.863 116.699 181.262 116.699 187.922C116.699 194.582 122.098 199.982 128.758 199.982Z" fill="url(#paint1_linear_1_150)" fill-opacity="0.45"/>
<path d="M150.395 227.053L173.031 193.099C174.296 191.202 174.928 190.254 175.187 189.226C175.416 188.317 175.435 187.368 175.242 186.451C175.024 185.414 174.429 184.441 173.241 182.496L128.623 109.486M128.623 109.486L84.0061 182.496C82.8174 184.441 82.223 185.414 82.0045 186.451C81.8114 187.368 81.8301 188.317 82.0593 189.226C82.3185 190.254 82.9508 191.202 84.2153 193.099L106.852 227.053M128.623 109.486V175.55M107.996 253.179L149.251 253.179C152.7 253.179 154.424 253.179 155.741 252.508C156.9 251.918 157.842 250.976 158.433 249.817C159.104 248.5 159.104 246.775 159.104 243.327L159.104 236.906C159.104 233.457 159.104 231.733 158.433 230.416C157.842 229.257 156.9 228.315 155.741 227.725C154.424 227.053 152.7 227.053 149.251 227.053H107.996C104.547 227.053 102.822 227.053 101.505 227.725C100.346 228.315 99.4044 229.257 98.814 230.416C98.1428 231.733 98.1428 233.457 98.1428 236.906L98.1428 243.327C98.1428 246.775 98.1428 248.5 98.814 249.817C99.4044 250.976 100.346 251.918 101.505 252.508C102.822 253.179 104.547 253.179 107.996 253.179ZM137.332 196.573C132.522 201.383 124.724 201.383 119.915 196.573C115.105 191.763 115.105 183.965 119.915 179.155C124.724 174.346 132.522 174.346 137.332 179.155C142.142 183.965 142.142 191.763 137.332 196.573Z" stroke="url(#paint2_linear_1_150)" stroke-width="0.8" stroke-linecap="round" stroke-linejoin="round"/>
<path d="M4.59985 100.512C4.59985 100.512 69.2547 34.7002 130.446 90.1209C191.637 145.542 252.828 78.5754 252.828 78.5754" stroke="url(#paint3_linear_1_150)"/>
<path d="M4.6001 92.5898C4.6001 92.5898 69.2549 26.778 130.446 82.1988C191.637 137.62 252.828 70.6533 252.828 70.6533" stroke="url(#paint4_linear_1_150)" stroke-opacity="0.9" stroke-width="0.5"/>
<path d="M4.6001 85.5898C4.6001 85.5898 69.2549 19.778 130.446 75.1988C191.637 130.62 252.828 63.6533 252.828 63.6533" stroke="url(#paint5_linear_1_150)" stroke-opacity="0.8" stroke-width="0.5"/>
<path d="M4.6001 78.5898C4.6001 78.5898 69.2549 12.778 130.446 68.1988C191.637 123.62 252.828 56.6533 252.828 56.6533" stroke="url(#paint6_linear_1_150)" stroke-opacity="0.7" stroke-width="0.5"/>
<path d="M4.6001 71.5898C4.6001 71.5898 69.2549 5.77804 130.446 61.1988C191.637 116.62 252.828 49.6533 252.828 49.6533" stroke="url(#paint7_linear_1_150)" stroke-opacity="0.6" stroke-width="0.5"/>
<path d="M4.6001 64.5898C4.6001 64.5898 69.2549 -1.22196 130.446 54.1988C191.637 109.62 252.828 42.6533 252.828 42.6533" stroke="url(#paint8_linear_1_150)" stroke-opacity="0.5" stroke-width="0.5"/>
<path d="M4.6001 57.5898C4.6001 57.5898 69.2549 -8.22196 130.446 47.1988C191.637 102.62 252.828 35.6533 252.828 35.6533" stroke="url(#paint9_linear_1_150)" stroke-opacity="0.4" stroke-width="0.5"/>
<path d="M4.6001 50.5898C4.6001 50.5898 69.2549 -15.222 130.446 40.1988C191.637 95.6196 252.828 28.6533 252.828 28.6533" stroke="url(#paint10_linear_1_150)" stroke-opacity="0.3" stroke-width="0.5"/>
<path d="M4.6001 43.5898C4.6001 43.5898 69.2549 -22.222 130.446 33.1988C191.637 88.6196 252.828 21.6533 252.828 21.6533" stroke="url(#paint11_linear_1_150)" stroke-opacity="0.2" stroke-width="0.5"/>
<path d="M4.6001 36.5898C4.6001 36.5898 69.2549 -29.222 130.446 26.1988C191.637 81.6196 252.828 14.6533 252.828 14.6533" stroke="url(#paint12_linear_1_150)" stroke-opacity="0.2" stroke-width="0.5"/>
<path d="M4.6001 29.5898C4.6001 29.5898 69.2549 -36.222 130.446 19.1988C191.637 74.6196 252.828 7.65331 252.828 7.65331" stroke="url(#paint13_linear_1_150)" stroke-opacity="0.2" stroke-width="0.5"/>
<path d="M4.6001 22.5898C4.6001 22.5898 69.2549 -43.222 130.446 12.1988C191.637 67.6196 252.828 0.653315 252.828 0.653315" stroke="url(#paint14_linear_1_150)" stroke-opacity="0.2" stroke-width="0.5"/>
<path d="M4.6001 15.5898C4.6001 15.5898 69.2549 -50.222 130.446 5.19881C191.637 60.6196 252.828 -6.34669 252.828 -6.34669" stroke="url(#paint15_linear_1_150)" stroke-opacity="0.2" stroke-width="0.5"/>
<path d="M4.6001 8.58977C4.6001 8.58977 69.2549 -57.222 130.446 -1.80119C191.637 53.6196 252.828 -13.3467 252.828 -13.3467" stroke="url(#paint16_linear_1_150)" stroke-opacity="0.95" stroke-width="0.5"/>
<path d="M4.6001 8.80559C4.6001 8.80559 69.2549 -57.0061 130.446 -1.58537C191.637 53.8354 252.828 -13.1309 252.828 -13.1309" stroke="url(#paint17_linear_1_150)" stroke-opacity="0.2" stroke-width="0.5"/>
<path d="M90.0522 40.2158L169.716 142.971" stroke="#5D35C7"/>
<rect x="0.75" y="96.384" width="7.7364" height="7.7364" fill="#181726" stroke="#593BE7" stroke-width="1.5"/>
<rect x="125.451" y="87.1472" width="7.7364" height="7.7364" fill="#181726" stroke="#6744D4" stroke-width="1.5"/>
<circle cx="90.0687" cy="40.2163" r="2.3091" fill="#5D35C7"/>
<circle cx="168.579" cy="141.819" r="2.3091" fill="#5D35C7"/>
</g>
<defs>
<linearGradient id="paint0_linear_1_150" x1="148.171" y1="251.991" x2="141.907" y2="226.8" gradientUnits="userSpaceOnUse">
<stop stop-color="#5E00A8"/>
<stop offset="1" stop-color="#4729D3"/>
</linearGradient>
<linearGradient id="paint1_linear_1_150" x1="159" y1="222" x2="102.891" y2="143.578" gradientUnits="userSpaceOnUse">
<stop stop-color="#5E00A8"/>
<stop offset="1" stop-color="#4729D3"/>
</linearGradient>
<linearGradient id="paint2_linear_1_150" x1="129" y1="135.5" x2="129" y2="254.5" gradientUnits="userSpaceOnUse">
<stop stop-color="#6744D4"/>
<stop offset="1" stop-color="#6525AC"/>
</linearGradient>
<linearGradient id="paint3_linear_1_150" x1="218.912" y1="150.427" x2="202.301" y2="169.649" gradientUnits="userSpaceOnUse">
<stop stop-color="#8046B9"/>
<stop offset="1" stop-color="#593BE7"/>
</linearGradient>
<linearGradient id="paint4_linear_1_150" x1="218.912" y1="142.505" x2="202.301" y2="161.727" gradientUnits="userSpaceOnUse">
<stop stop-color="#8046B9"/>
<stop offset="1" stop-color="#593BE7"/>
</linearGradient>
<linearGradient id="paint5_linear_1_150" x1="218.912" y1="135.505" x2="202.301" y2="154.727" gradientUnits="userSpaceOnUse">
<stop stop-color="#8046B9"/>
<stop offset="1" stop-color="#593BE7"/>
</linearGradient>
<linearGradient id="paint6_linear_1_150" x1="218.912" y1="128.505" x2="202.301" y2="147.727" gradientUnits="userSpaceOnUse">
<stop stop-color="#8046B9"/>
<stop offset="1" stop-color="#593BE7"/>
</linearGradient>
<linearGradient id="paint7_linear_1_150" x1="218.912" y1="121.505" x2="202.301" y2="140.727" gradientUnits="userSpaceOnUse">
<stop stop-color="#8046B9"/>
<stop offset="1" stop-color="#593BE7"/>
</linearGradient>
<linearGradient id="paint8_linear_1_150" x1="218.912" y1="114.505" x2="202.301" y2="133.727" gradientUnits="userSpaceOnUse">
<stop stop-color="#8046B9"/>
<stop offset="1" stop-color="#593BE7"/>
</linearGradient>
<linearGradient id="paint9_linear_1_150" x1="218.912" y1="107.505" x2="202.301" y2="126.727" gradientUnits="userSpaceOnUse">
<stop stop-color="#8046B9"/>
<stop offset="1" stop-color="#593BE7"/>
</linearGradient>
<linearGradient id="paint10_linear_1_150" x1="218.912" y1="100.505" x2="202.301" y2="119.727" gradientUnits="userSpaceOnUse">
<stop stop-color="#8046B9"/>
<stop offset="1" stop-color="#593BE7"/>
</linearGradient>
<linearGradient id="paint11_linear_1_150" x1="218.912" y1="93.5054" x2="202.301" y2="112.727" gradientUnits="userSpaceOnUse">
<stop stop-color="#8046B9"/>
<stop offset="1" stop-color="#593BE7"/>
</linearGradient>
<linearGradient id="paint12_linear_1_150" x1="218.912" y1="86.5054" x2="202.301" y2="105.727" gradientUnits="userSpaceOnUse">
<stop stop-color="#8046B9"/>
<stop offset="1" stop-color="#593BE7"/>
</linearGradient>
<linearGradient id="paint13_linear_1_150" x1="218.912" y1="79.5054" x2="202.301" y2="98.7273" gradientUnits="userSpaceOnUse">
<stop stop-color="#8046B9"/>
<stop offset="1" stop-color="#593BE7"/>
</linearGradient>
<linearGradient id="paint14_linear_1_150" x1="218.912" y1="72.5054" x2="202.301" y2="91.7273" gradientUnits="userSpaceOnUse">
<stop stop-color="#8046B9"/>
<stop offset="1" stop-color="#593BE7"/>
</linearGradient>
<linearGradient id="paint15_linear_1_150" x1="218.912" y1="65.5054" x2="202.301" y2="84.7273" gradientUnits="userSpaceOnUse">
<stop stop-color="#8046B9"/>
<stop offset="1" stop-color="#593BE7"/>
</linearGradient>
<linearGradient id="paint16_linear_1_150" x1="-3.50049" y1="7.9071" x2="3.81769" y2="-18.8613" gradientUnits="userSpaceOnUse">
<stop stop-color="#121120"/>
<stop offset="1" stop-color="#2B2A37"/>
</linearGradient>
<linearGradient id="paint17_linear_1_150" x1="218.912" y1="58.7212" x2="202.301" y2="77.9431" gradientUnits="userSpaceOnUse">
<stop stop-color="#8046B9"/>
<stop offset="1" stop-color="#593BE7"/>
</linearGradient>
</defs>
</svg>
